  0
SECTION
  2
BLOCKS
  0
ENDSEC
  0
SECTION
  2
ENTITIES
  0
LINE
  8
0
 10
15.3117
 20
-29.476
 11
16.1631
 21
-29.2574
  0
LINE
  8
0
 10
16.1631
 20
-29.2574
 11
16.9805
 21
-28.9338
  0
LINE
  8
0
 10
16.9805
 20
-28.9338
 11
17.7508
 21
-28.5103
  0
LINE
  8
0
 10
17.7508
 20
-28.5103
 11
18.462
 21
-27.9936
  0
LINE
  8
0
 10
18.462
 20
-27.9936
 11
19.1028
 21
-27.3918
  0
LINE
  8
0
 10
19.1028
 20
-27.3918
 11
19.6631
 21
-26.7145
  0
LINE
  8
0
 10
19.6631
 20
-26.7145
 11
20.1341
 21
-25.9723
  0
LINE
  8
0
 10
20.1341
 20
-25.9723
 11
20.5084
 21
-25.1769
  0
LINE
  8
0
 10
20.5084
 20
-25.1769
 11
20.7801
 21
-24.3408
  0
LINE
  8
0
 10
20.7801
 20
-24.3408
 11
20.9448
 21
-23.4773
  0
LINE
  8
0
 10
20.9448
 20
-23.4773
 11
21
 21
-22.6
  0
LINE
  8
0
 10
21
 20
-22.6
 11
20.9448
 21
-21.7227
  0
LINE
  8
0
 10
20.9448
 20
-21.7227
 11
20.7801
 21
-20.8592
  0
LINE
  8
0
 10
20.7801
 20
-20.8592
 11
20.5084
 21
-20.0231
  0
LINE
  8
0
 10
20.5084
 20
-20.0231
 11
20.1341
 21
-19.2277
  0
LINE
  8
0
 10
20.1341
 20
-19.2277
 11
19.6631
 21
-18.4855
  0
LINE
  8
0
 10
19.6631
 20
-18.4855
 11
19.1028
 21
-17.8082
  0
LINE
  8
0
 10
19.1028
 20
-17.8082
 11
18.462
 21
-17.2064
  0
LINE
  8
0
 10
18.462
 20
-17.2064
 11
17.7508
 21
-16.6897
  0
LINE
  8
0
 10
17.7508
 20
-16.6897
 11
16.9805
 21
-16.2662
  0
LINE
  8
0
 10
16.9805
 20
-16.2662
 11
16.1631
 21
-15.9426
  0
LINE
  8
0
 10
16.1631
 20
-15.9426
 11
15.3117
 21
-15.724
  0
LINE
  8
0
 10
15.3117
 20
-15.724
 11
14.4395
 21
-15.6138
  0
LINE
  8
0
 10
14.4395
 20
-15.6138
 11
7.85251
 21
-15.6138
  0
LINE
  8
0
 10
7.85251
 20
-15.6138
 11
7.45113
 21
-15.8345
  0
LINE
  8
0
 10
7.45113
 20
-15.8345
 11
5.40779
 21
-16.6435
  0
LINE
  8
0
 10
5.40779
 20
-16.6435
 11
3.27916
 21
-17.19
  0
LINE
  8
0
 10
3.27916
 20
-17.19
 11
1.09883
 21
-17.4655
  0
LINE
  8
0
 10
1.09883
 20
-17.4655
 11
-1.09883
 21
-17.4655
  0
LINE
  8
0
 10
-1.09883
 20
-17.4655
 11
-3.27916
 21
-17.19
  0
LINE
  8
0
 10
-3.27916
 20
-17.19
 11
-5.40779
 21
-16.6435
  0
LINE
  8
0
 10
-5.40779
 20
-16.6435
 11
-7.45113
 21
-15.8345
  0
LINE
  8
0
 10
-7.45113
 20
-15.8345
 11
-7.85251
 21
-15.6138
  0
LINE
  8
0
 10
-7.85251
 20
-15.6138
 11
-14.4395
 21
-15.6138
  0
LINE
  8
0
 10
-14.4395
 20
-15.6138
 11
-15.3117
 21
-15.724
  0
LINE
  8
0
 10
-15.3117
 20
-15.724
 11
-16.1631
 21
-15.9426
  0
LINE
  8
0
 10
-16.1631
 20
-15.9426
 11
-16.9805
 21
-16.2662
  0
LINE
  8
0
 10
-16.9805
 20
-16.2662
 11
-17.7508
 21
-16.6897
  0
LINE
  8
0
 10
-17.7508
 20
-16.6897
 11
-18.462
 21
-17.2064
  0
LINE
  8
0
 10
-18.462
 20
-17.2064
 11
-19.1028
 21
-17.8082
  0
LINE
  8
0
 10
-19.1028
 20
-17.8082
 11
-19.6631
 21
-18.4855
  0
LINE
  8
0
 10
-19.6631
 20
-18.4855
 11
-20.1341
 21
-19.2277
  0
LINE
  8
0
 10
-20.1341
 20
-19.2277
 11
-20.5084
 21
-20.0231
  0
LINE
  8
0
 10
-20.5084
 20
-20.0231
 11
-20.7801
 21
-20.8592
  0
LINE
  8
0
 10
-20.7801
 20
-20.8592
 11
-20.9448
 21
-21.7227
  0
LINE
  8
0
 10
-20.9448
 20
-21.7227
 11
-21
 21
-22.6
  0
LINE
  8
0
 10
-21
 20
-22.6
 11
-20.9448
 21
-23.4773
  0
LINE
  8
0
 10
-20.9448
 20
-23.4773
 11
-20.7801
 21
-24.3408
  0
LINE
  8
0
 10
-20.7801
 20
-24.3408
 11
-20.5084
 21
-25.1769
  0
LINE
  8
0
 10
-20.5084
 20
-25.1769
 11
-20.1341
 21
-25.9723
  0
LINE
  8
0
 10
-20.1341
 20
-25.9723
 11
-19.6631
 21
-26.7145
  0
LINE
  8
0
 10
-19.6631
 20
-26.7145
 11
-19.1028
 21
-27.3918
  0
LINE
  8
0
 10
-19.1028
 20
-27.3918
 11
-18.462
 21
-27.9936
  0
LINE
  8
0
 10
-18.462
 20
-27.9936
 11
-17.7508
 21
-28.5103
  0
LINE
  8
0
 10
-17.7508
 20
-28.5103
 11
-16.9805
 21
-28.9338
  0
LINE
  8
0
 10
-16.9805
 20
-28.9338
 11
-16.1631
 21
-29.2574
  0
LINE
  8
0
 10
-16.1631
 20
-29.2574
 11
-15.3117
 21
-29.476
  0
LINE
  8
0
 10
-15.3117
 20
-29.476
 11
-14.4395
 21
-29.5862
  0
LINE
  8
0
 10
-14.4395
 20
-29.5862
 11
14.4395
 21
-29.5862
  0
LINE
  8
0
 10
14.4395
 20
-29.5862
 11
15.3117
 21
-29.476
  0
LINE
  8
0
 10
-14.1287
 20
-24.646
 11
-14.3841
 21
-24.6137
  0
LINE
  8
0
 10
-14.3841
 20
-24.6137
 11
-14.6335
 21
-24.5497
  0
LINE
  8
0
 10
-14.6335
 20
-24.5497
 11
-14.8728
 21
-24.4549
  0
LINE
  8
0
 10
-14.8728
 20
-24.4549
 11
-15.0984
 21
-24.3309
  0
LINE
  8
0
 10
-15.0984
 20
-24.3309
 11
-15.3067
 21
-24.1796
  0
LINE
  8
0
 10
-15.3067
 20
-24.1796
 11
-15.4944
 21
-24.0033
  0
LINE
  8
0
 10
-15.4944
 20
-24.0033
 11
-15.6585
 21
-23.8049
  0
LINE
  8
0
 10
-15.6585
 20
-23.8049
 11
-15.7964
 21
-23.5876
  0
LINE
  8
0
 10
-15.7964
 20
-23.5876
 11
-15.906
 21
-23.3546
  0
LINE
  8
0
 10
-15.906
 20
-23.3546
 11
-15.9856
 21
-23.1098
  0
LINE
  8
0
 10
-15.9856
 20
-23.1098
 11
-16.0338
 21
-22.8569
  0
LINE
  8
0
 10
-16.0338
 20
-22.8569
 11
-16.05
 21
-22.6
  0
LINE
  8
0
 10
-16.05
 20
-22.6
 11
-16.0338
 21
-22.3431
  0
LINE
  8
0
 10
-16.0338
 20
-22.3431
 11
-15.9856
 21
-22.0902
  0
LINE
  8
0
 10
-15.9856
 20
-22.0902
 11
-15.906
 21
-21.8453
  0
LINE
  8
0
 10
-15.906
 20
-21.8453
 11
-15.7964
 21
-21.6124
  0
LINE
  8
0
 10
-15.7964
 20
-21.6124
 11
-15.6585
 21
-21.395
  0
LINE
  8
0
 10
-15.6585
 20
-21.395
 11
-15.4944
 21
-21.1967
  0
LINE
  8
0
 10
-15.4944
 20
-21.1967
 11
-15.3067
 21
-21.0204
  0
LINE
  8
0
 10
-15.3067
 20
-21.0204
 11
-15.0984
 21
-20.8691
  0
LINE
  8
0
 10
-15.0984
 20
-20.8691
 11
-14.8728
 21
-20.7451
  0
LINE
  8
0
 10
-14.8728
 20
-20.7451
 11
-14.6335
 21
-20.6503
  0
LINE
  8
0
 10
-14.6335
 20
-20.6503
 11
-14.3841
 21
-20.5863
  0
LINE
  8
0
 10
-14.3841
 20
-20.5863
 11
-14.1287
 21
-20.554
  0
LINE
  8
0
 10
-14.1287
 20
-20.554
 11
-13.8713
 21
-20.554
  0
LINE
  8
0
 10
-13.8713
 20
-20.554
 11
-13.6159
 21
-20.5863
  0
LINE
  8
0
 10
-13.6159
 20
-20.5863
 11
-13.3665
 21
-20.6503
  0
LINE
  8
0
 10
-13.3665
 20
-20.6503
 11
-13.1272
 21
-20.7451
  0
LINE
  8
0
 10
-13.1272
 20
-20.7451
 11
-12.9016
 21
-20.8691
  0
LINE
  8
0
 10
-12.9016
 20
-20.8691
 11
-12.6933
 21
-21.0204
  0
LINE
  8
0
 10
-12.6933
 20
-21.0204
 11
-12.5056
 21
-21.1967
  0
LINE
  8
0
 10
-12.5056
 20
-21.1967
 11
-12.3415
 21
-21.395
  0
LINE
  8
0
 10
-12.3415
 20
-21.395
 11
-12.2036
 21
-21.6124
  0
LINE
  8
0
 10
-12.2036
 20
-21.6124
 11
-12.0939
 21
-21.8453
  0
LINE
  8
0
 10
-12.0939
 20
-21.8453
 11
-12.0144
 21
-22.0902
  0
LINE
  8
0
 10
-12.0144
 20
-22.0902
 11
-11.9662
 21
-22.3431
  0
LINE
  8
0
 10
-11.9662
 20
-22.3431
 11
-11.95
 21
-22.6
  0
LINE
  8
0
 10
-11.95
 20
-22.6
 11
-11.9662
 21
-22.8569
  0
LINE
  8
0
 10
-11.9662
 20
-22.8569
 11
-12.0144
 21
-23.1098
  0
LINE
  8
0
 10
-12.0144
 20
-23.1098
 11
-12.0939
 21
-23.3546
  0
LINE
  8
0
 10
-12.0939
 20
-23.3546
 11
-12.2036
 21
-23.5876
  0
LINE
  8
0
 10
-12.2036
 20
-23.5876
 11
-12.3415
 21
-23.8049
  0
LINE
  8
0
 10
-12.3415
 20
-23.8049
 11
-12.5056
 21
-24.0033
  0
LINE
  8
0
 10
-12.5056
 20
-24.0033
 11
-12.6933
 21
-24.1796
  0
LINE
  8
0
 10
-12.6933
 20
-24.1796
 11
-12.9016
 21
-24.3309
  0
LINE
  8
0
 10
-12.9016
 20
-24.3309
 11
-13.1272
 21
-24.4549
  0
LINE
  8
0
 10
-13.1272
 20
-24.4549
 11
-13.3665
 21
-24.5497
  0
LINE
  8
0
 10
-13.3665
 20
-24.5497
 11
-13.6159
 21
-24.6137
  0
LINE
  8
0
 10
-13.6159
 20
-24.6137
 11
-13.8713
 21
-24.646
  0
LINE
  8
0
 10
-13.8713
 20
-24.646
 11
-14.1287
 21
-24.646
  0
LINE
  8
0
 10
13.8713
 20
-24.646
 11
13.6159
 21
-24.6137
  0
LINE
  8
0
 10
13.6159
 20
-24.6137
 11
13.3665
 21
-24.5497
  0
LINE
  8
0
 10
13.3665
 20
-24.5497
 11
13.1272
 21
-24.4549
  0
LINE
  8
0
 10
13.1272
 20
-24.4549
 11
12.9016
 21
-24.3309
  0
LINE
  8
0
 10
12.9016
 20
-24.3309
 11
12.6933
 21
-24.1796
  0
LINE
  8
0
 10
12.6933
 20
-24.1796
 11
12.5056
 21
-24.0033
  0
LINE
  8
0
 10
12.5056
 20
-24.0033
 11
12.3415
 21
-23.8049
  0
LINE
  8
0
 10
12.3415
 20
-23.8049
 11
12.2036
 21
-23.5876
  0
LINE
  8
0
 10
12.2036
 20
-23.5876
 11
12.0939
 21
-23.3546
  0
LINE
  8
0
 10
12.0939
 20
-23.3546
 11
12.0144
 21
-23.1098
  0
LINE
  8
0
 10
12.0144
 20
-23.1098
 11
11.9662
 21
-22.8569
  0
LINE
  8
0
 10
11.9662
 20
-22.8569
 11
11.95
 21
-22.6
  0
LINE
  8
0
 10
11.95
 20
-22.6
 11
11.9662
 21
-22.3431
  0
LINE
  8
0
 10
11.9662
 20
-22.3431
 11
12.0144
 21
-22.0902
  0
LINE
  8
0
 10
12.0144
 20
-22.0902
 11
12.0939
 21
-21.8453
  0
LINE
  8
0
 10
12.0939
 20
-21.8453
 11
12.2036
 21
-21.6124
  0
LINE
  8
0
 10
12.2036
 20
-21.6124
 11
12.3415
 21
-21.395
  0
LINE
  8
0
 10
12.3415
 20
-21.395
 11
12.5056
 21
-21.1967
  0
LINE
  8
0
 10
12.5056
 20
-21.1967
 11
12.6933
 21
-21.0204
  0
LINE
  8
0
 10
12.6933
 20
-21.0204
 11
12.9016
 21
-20.8691
  0
LINE
  8
0
 10
12.9016
 20
-20.8691
 11
13.1272
 21
-20.7451
  0
LINE
  8
0
 10
13.1272
 20
-20.7451
 11
13.3665
 21
-20.6503
  0
LINE
  8
0
 10
13.3665
 20
-20.6503
 11
13.6159
 21
-20.5863
  0
LINE
  8
0
 10
13.6159
 20
-20.5863
 11
13.8713
 21
-20.554
  0
LINE
  8
0
 10
13.8713
 20
-20.554
 11
14.1287
 21
-20.554
  0
LINE
  8
0
 10
14.1287
 20
-20.554
 11
14.3841
 21
-20.5863
  0
LINE
  8
0
 10
14.3841
 20
-20.5863
 11
14.6335
 21
-20.6503
  0
LINE
  8
0
 10
14.6335
 20
-20.6503
 11
14.8728
 21
-20.7451
  0
LINE
  8
0
 10
14.8728
 20
-20.7451
 11
15.0984
 21
-20.8691
  0
LINE
  8
0
 10
15.0984
 20
-20.8691
 11
15.3067
 21
-21.0204
  0
LINE
  8
0
 10
15.3067
 20
-21.0204
 11
15.4944
 21
-21.1967
  0
LINE
  8
0
 10
15.4944
 20
-21.1967
 11
15.6585
 21
-21.395
  0
LINE
  8
0
 10
15.6585
 20
-21.395
 11
15.7964
 21
-21.6124
  0
LINE
  8
0
 10
15.7964
 20
-21.6124
 11
15.906
 21
-21.8453
  0
LINE
  8
0
 10
15.906
 20
-21.8453
 11
15.9856
 21
-22.0902
  0
LINE
  8
0
 10
15.9856
 20
-22.0902
 11
16.0338
 21
-22.3431
  0
LINE
  8
0
 10
16.0338
 20
-22.3431
 11
16.05
 21
-22.6
  0
LINE
  8
0
 10
16.05
 20
-22.6
 11
16.0338
 21
-22.8569
  0
LINE
  8
0
 10
16.0338
 20
-22.8569
 11
15.9856
 21
-23.1098
  0
LINE
  8
0
 10
15.9856
 20
-23.1098
 11
15.906
 21
-23.3546
  0
LINE
  8
0
 10
15.906
 20
-23.3546
 11
15.7964
 21
-23.5876
  0
LINE
  8
0
 10
15.7964
 20
-23.5876
 11
15.6585
 21
-23.8049
  0
LINE
  8
0
 10
15.6585
 20
-23.8049
 11
15.4944
 21
-24.0033
  0
LINE
  8
0
 10
15.4944
 20
-24.0033
 11
15.3067
 21
-24.1796
  0
LINE
  8
0
 10
15.3067
 20
-24.1796
 11
15.0984
 21
-24.3309
  0
LINE
  8
0
 10
15.0984
 20
-24.3309
 11
14.8728
 21
-24.4549
  0
LINE
  8
0
 10
14.8728
 20
-24.4549
 11
14.6335
 21
-24.5497
  0
LINE
  8
0
 10
14.6335
 20
-24.5497
 11
14.3841
 21
-24.6137
  0
LINE
  8
0
 10
14.3841
 20
-24.6137
 11
14.1287
 21
-24.646
  0
LINE
  8
0
 10
14.1287
 20
-24.646
 11
13.8713
 21
-24.646
  0
ENDSEC
  0
SECTION
  2
OBJECTS
  0
DICTIONARY
  0
ENDSEC
  0
EOF
