  0
SECTION
  2
BLOCKS
  0
ENDSEC
  0
SECTION
  2
ENTITIES
  0
LINE
  8
0
 10
33.2725
 20
-34.3776
 11
33.9695
 21
-34.0225
  0
LINE
  8
0
 10
33.9695
 20
-34.0225
 11
34.5225
 21
-33.4695
  0
LINE
  8
0
 10
34.5225
 20
-33.4695
 11
34.8776
 21
-32.7725
  0
LINE
  8
0
 10
34.8776
 20
-32.7725
 11
35
 21
-32
  0
LINE
  8
0
 10
35
 20
-32
 11
35
 21
-23
  0
LINE
  8
0
 10
35
 20
-23
 11
34.8776
 21
-22.2274
  0
LINE
  8
0
 10
34.8776
 20
-22.2274
 11
23.2444
 21
9.20311
  0
LINE
  8
0
 10
23.2444
 20
9.20311
 11
21.9077
 21
12.0438
  0
LINE
  8
0
 10
21.9077
 20
12.0438
 11
20.2254
 21
14.6946
  0
LINE
  8
0
 10
20.2254
 20
14.6946
 11
18.2242
 21
17.1137
  0
LINE
  8
0
 10
18.2242
 20
17.1137
 11
15.9356
 21
19.2628
  0
LINE
  8
0
 10
15.9356
 20
19.2628
 11
13.3957
 21
21.1082
  0
LINE
  8
0
 10
13.3957
 20
21.1082
 11
10.6445
 21
22.6207
  0
LINE
  8
0
 10
10.6445
 20
22.6207
 11
7.72542
 21
23.7764
  0
LINE
  8
0
 10
7.72542
 20
23.7764
 11
4.68452
 21
24.5572
  0
LINE
  8
0
 10
4.68452
 20
24.5572
 11
1.56975
 21
24.9507
  0
LINE
  8
0
 10
1.56975
 20
24.9507
 11
-1.56975
 21
24.9507
  0
LINE
  8
0
 10
-1.56975
 20
24.9507
 11
-4.68452
 21
24.5572
  0
LINE
  8
0
 10
-4.68452
 20
24.5572
 11
-7.72542
 21
23.7764
  0
LINE
  8
0
 10
-7.72542
 20
23.7764
 11
-10.6445
 21
22.6207
  0
LINE
  8
0
 10
-10.6445
 20
22.6207
 11
-13.3957
 21
21.1082
  0
LINE
  8
0
 10
-13.3957
 20
21.1082
 11
-15.9356
 21
19.2628
  0
LINE
  8
0
 10
-15.9356
 20
19.2628
 11
-18.2242
 21
17.1137
  0
LINE
  8
0
 10
-18.2242
 20
17.1137
 11
-20.2254
 21
14.6946
  0
LINE
  8
0
 10
-20.2254
 20
14.6946
 11
-21.9077
 21
12.0438
  0
LINE
  8
0
 10
-21.9077
 20
12.0438
 11
-23.2444
 21
9.20311
  0
LINE
  8
0
 10
-23.2444
 20
9.20311
 11
-34.8776
 21
-22.2274
  0
LINE
  8
0
 10
-34.8776
 20
-22.2274
 11
-35
 21
-23
  0
LINE
  8
0
 10
-35
 20
-23
 11
-35
 21
-32
  0
LINE
  8
0
 10
-35
 20
-32
 11
-34.8776
 21
-32.7725
  0
LINE
  8
0
 10
-34.8776
 20
-32.7725
 11
-34.5225
 21
-33.4695
  0
LINE
  8
0
 10
-34.5225
 20
-33.4695
 11
-33.9695
 21
-34.0225
  0
LINE
  8
0
 10
-33.9695
 20
-34.0225
 11
-33.2725
 21
-34.3776
  0
LINE
  8
0
 10
-33.2725
 20
-34.3776
 11
-32.5
 21
-34.5
  0
LINE
  8
0
 10
-32.5
 20
-34.5
 11
32.5
 21
-34.5
  0
LINE
  8
0
 10
32.5
 20
-34.5
 11
33.2725
 21
-34.3776
  0
LINE
  8
0
 10
-1.16162
 20
-18.4635
 11
-3.46655
 21
-18.1723
  0
LINE
  8
0
 10
-3.46655
 20
-18.1723
 11
-5.71681
 21
-17.5945
  0
LINE
  8
0
 10
-5.71681
 20
-17.5945
 11
-7.87691
 21
-16.7393
  0
LINE
  8
0
 10
-7.87691
 20
-16.7393
 11
-9.91278
 21
-15.6201
  0
LINE
  8
0
 10
-9.91278
 20
-15.6201
 11
-11.7923
 21
-14.2545
  0
LINE
  8
0
 10
-11.7923
 20
-14.2545
 11
-13.4859
 21
-12.6641
  0
LINE
  8
0
 10
-13.4859
 20
-12.6641
 11
-14.9668
 21
-10.874
  0
LINE
  8
0
 10
-14.9668
 20
-10.874
 11
-16.2117
 21
-8.91243
  0
LINE
  8
0
 10
-16.2117
 20
-8.91243
 11
-17.2009
 21
-6.8103
  0
LINE
  8
0
 10
-17.2009
 20
-6.8103
 11
-17.9188
 21
-4.60075
  0
LINE
  8
0
 10
-17.9188
 20
-4.60075
 11
-18.3541
 21
-2.31866
  0
LINE
  8
0
 10
-18.3541
 20
-2.31866
 11
-18.5
 21
0
  0
LINE
  8
0
 10
-18.5
 20
0
 11
-18.3541
 21
2.31866
  0
LINE
  8
0
 10
-18.3541
 20
2.31866
 11
-17.9188
 21
4.60075
  0
LINE
  8
0
 10
-17.9188
 20
4.60075
 11
-17.2009
 21
6.8103
  0
LINE
  8
0
 10
-17.2009
 20
6.8103
 11
-16.2117
 21
8.91243
  0
LINE
  8
0
 10
-16.2117
 20
8.91243
 11
-14.9668
 21
10.874
  0
LINE
  8
0
 10
-14.9668
 20
10.874
 11
-13.4859
 21
12.6641
  0
LINE
  8
0
 10
-13.4859
 20
12.6641
 11
-11.7923
 21
14.2545
  0
LINE
  8
0
 10
-11.7923
 20
14.2545
 11
-9.91278
 21
15.6201
  0
LINE
  8
0
 10
-9.91278
 20
15.6201
 11
-7.87691
 21
16.7393
  0
LINE
  8
0
 10
-7.87691
 20
16.7393
 11
-5.71681
 21
17.5945
  0
LINE
  8
0
 10
-5.71681
 20
17.5945
 11
-3.46655
 21
18.1723
  0
LINE
  8
0
 10
-3.46655
 20
18.1723
 11
-1.16162
 21
18.4635
  0
LINE
  8
0
 10
-1.16162
 20
18.4635
 11
1.16162
 21
18.4635
  0
LINE
  8
0
 10
1.16162
 20
18.4635
 11
3.46655
 21
18.1723
  0
LINE
  8
0
 10
3.46655
 20
18.1723
 11
5.71681
 21
17.5945
  0
LINE
  8
0
 10
5.71681
 20
17.5945
 11
7.87691
 21
16.7393
  0
LINE
  8
0
 10
7.87691
 20
16.7393
 11
9.91278
 21
15.6201
  0
LINE
  8
0
 10
9.91278
 20
15.6201
 11
11.7923
 21
14.2545
  0
LINE
  8
0
 10
11.7923
 20
14.2545
 11
13.4859
 21
12.6641
  0
LINE
  8
0
 10
13.4859
 20
12.6641
 11
14.9668
 21
10.874
  0
LINE
  8
0
 10
14.9668
 20
10.874
 11
16.2117
 21
8.91243
  0
LINE
  8
0
 10
16.2117
 20
8.91243
 11
17.2009
 21
6.8103
  0
LINE
  8
0
 10
17.2009
 20
6.8103
 11
17.9188
 21
4.60075
  0
LINE
  8
0
 10
17.9188
 20
4.60075
 11
18.3541
 21
2.31866
  0
LINE
  8
0
 10
18.3541
 20
2.31866
 11
18.5
 21
0
  0
LINE
  8
0
 10
18.5
 20
0
 11
18.3541
 21
-2.31866
  0
LINE
  8
0
 10
18.3541
 20
-2.31866
 11
17.9188
 21
-4.60075
  0
LINE
  8
0
 10
17.9188
 20
-4.60075
 11
17.2009
 21
-6.8103
  0
LINE
  8
0
 10
17.2009
 20
-6.8103
 11
16.2117
 21
-8.91243
  0
LINE
  8
0
 10
16.2117
 20
-8.91243
 11
14.9668
 21
-10.874
  0
LINE
  8
0
 10
14.9668
 20
-10.874
 11
13.4859
 21
-12.6641
  0
LINE
  8
0
 10
13.4859
 20
-12.6641
 11
11.7923
 21
-14.2545
  0
LINE
  8
0
 10
11.7923
 20
-14.2545
 11
9.91278
 21
-15.6201
  0
LINE
  8
0
 10
9.91278
 20
-15.6201
 11
7.87691
 21
-16.7393
  0
LINE
  8
0
 10
7.87691
 20
-16.7393
 11
5.71681
 21
-17.5945
  0
LINE
  8
0
 10
5.71681
 20
-17.5945
 11
3.46655
 21
-18.1723
  0
LINE
  8
0
 10
3.46655
 20
-18.1723
 11
1.16162
 21
-18.4635
  0
LINE
  8
0
 10
1.16162
 20
-18.4635
 11
-1.16162
 21
-18.4635
  0
LINE
  8
0
 10
27.8713
 20
-25.5459
 11
27.6159
 21
-25.5137
  0
LINE
  8
0
 10
27.6159
 20
-25.5137
 11
27.3665
 21
-25.4497
  0
LINE
  8
0
 10
27.3665
 20
-25.4497
 11
27.1272
 21
-25.3549
  0
LINE
  8
0
 10
27.1272
 20
-25.3549
 11
26.9016
 21
-25.2309
  0
LINE
  8
0
 10
26.9016
 20
-25.2309
 11
26.6933
 21
-25.0795
  0
LINE
  8
0
 10
26.6933
 20
-25.0795
 11
26.5056
 21
-24.9033
  0
LINE
  8
0
 10
26.5056
 20
-24.9033
 11
26.3415
 21
-24.705
  0
LINE
  8
0
 10
26.3415
 20
-24.705
 11
26.2036
 21
-24.4876
  0
LINE
  8
0
 10
26.2036
 20
-24.4876
 11
26.0939
 21
-24.2547
  0
LINE
  8
0
 10
26.0939
 20
-24.2547
 11
26.0144
 21
-24.0098
  0
LINE
  8
0
 10
26.0144
 20
-24.0098
 11
25.9662
 21
-23.7569
  0
LINE
  8
0
 10
25.9662
 20
-23.7569
 11
25.95
 21
-23.5
  0
LINE
  8
0
 10
25.95
 20
-23.5
 11
25.9662
 21
-23.2431
  0
LINE
  8
0
 10
25.9662
 20
-23.2431
 11
26.0144
 21
-22.9902
  0
LINE
  8
0
 10
26.0144
 20
-22.9902
 11
26.0939
 21
-22.7453
  0
LINE
  8
0
 10
26.0939
 20
-22.7453
 11
26.2036
 21
-22.5124
  0
LINE
  8
0
 10
26.2036
 20
-22.5124
 11
26.3415
 21
-22.295
  0
LINE
  8
0
 10
26.3415
 20
-22.295
 11
26.5056
 21
-22.0967
  0
LINE
  8
0
 10
26.5056
 20
-22.0967
 11
26.6933
 21
-21.9204
  0
LINE
  8
0
 10
26.6933
 20
-21.9204
 11
26.9016
 21
-21.7691
  0
LINE
  8
0
 10
26.9016
 20
-21.7691
 11
27.1272
 21
-21.6451
  0
LINE
  8
0
 10
27.1272
 20
-21.6451
 11
27.3665
 21
-21.5503
  0
LINE
  8
0
 10
27.3665
 20
-21.5503
 11
27.6159
 21
-21.4863
  0
LINE
  8
0
 10
27.6159
 20
-21.4863
 11
27.8713
 21
-21.454
  0
LINE
  8
0
 10
27.8713
 20
-21.454
 11
28.1287
 21
-21.454
  0
LINE
  8
0
 10
28.1287
 20
-21.454
 11
28.3841
 21
-21.4863
  0
LINE
  8
0
 10
28.3841
 20
-21.4863
 11
28.6335
 21
-21.5503
  0
LINE
  8
0
 10
28.6335
 20
-21.5503
 11
28.8728
 21
-21.6451
  0
LINE
  8
0
 10
28.8728
 20
-21.6451
 11
29.0984
 21
-21.7691
  0
LINE
  8
0
 10
29.0984
 20
-21.7691
 11
29.3067
 21
-21.9204
  0
LINE
  8
0
 10
29.3067
 20
-21.9204
 11
29.4944
 21
-22.0967
  0
LINE
  8
0
 10
29.4944
 20
-22.0967
 11
29.6585
 21
-22.295
  0
LINE
  8
0
 10
29.6585
 20
-22.295
 11
29.7964
 21
-22.5124
  0
LINE
  8
0
 10
29.7964
 20
-22.5124
 11
29.906
 21
-22.7453
  0
LINE
  8
0
 10
29.906
 20
-22.7453
 11
29.9856
 21
-22.9902
  0
LINE
  8
0
 10
29.9856
 20
-22.9902
 11
30.0338
 21
-23.2431
  0
LINE
  8
0
 10
30.0338
 20
-23.2431
 11
30.05
 21
-23.5
  0
LINE
  8
0
 10
30.05
 20
-23.5
 11
30.0338
 21
-23.7569
  0
LINE
  8
0
 10
30.0338
 20
-23.7569
 11
29.9856
 21
-24.0098
  0
LINE
  8
0
 10
29.9856
 20
-24.0098
 11
29.906
 21
-24.2547
  0
LINE
  8
0
 10
29.906
 20
-24.2547
 11
29.7964
 21
-24.4876
  0
LINE
  8
0
 10
29.7964
 20
-24.4876
 11
29.6585
 21
-24.705
  0
LINE
  8
0
 10
29.6585
 20
-24.705
 11
29.4944
 21
-24.9033
  0
LINE
  8
0
 10
29.4944
 20
-24.9033
 11
29.3067
 21
-25.0795
  0
LINE
  8
0
 10
29.3067
 20
-25.0795
 11
29.0984
 21
-25.2309
  0
LINE
  8
0
 10
29.0984
 20
-25.2309
 11
28.8728
 21
-25.3549
  0
LINE
  8
0
 10
28.8728
 20
-25.3549
 11
28.6335
 21
-25.4497
  0
LINE
  8
0
 10
28.6335
 20
-25.4497
 11
28.3841
 21
-25.5137
  0
LINE
  8
0
 10
28.3841
 20
-25.5137
 11
28.1287
 21
-25.5459
  0
LINE
  8
0
 10
28.1287
 20
-25.5459
 11
27.8713
 21
-25.5459
  0
LINE
  8
0
 10
3.87128
 20
-25.5459
 11
3.61586
 21
-25.5137
  0
LINE
  8
0
 10
3.61586
 20
-25.5137
 11
3.3665
 21
-25.4497
  0
LINE
  8
0
 10
3.3665
 20
-25.4497
 11
3.12715
 21
-25.3549
  0
LINE
  8
0
 10
3.12715
 20
-25.3549
 11
2.90155
 21
-25.2309
  0
LINE
  8
0
 10
2.90155
 20
-25.2309
 11
2.69327
 21
-25.0795
  0
LINE
  8
0
 10
2.69327
 20
-25.0795
 11
2.5056
 21
-24.9033
  0
LINE
  8
0
 10
2.5056
 20
-24.9033
 11
2.34151
 21
-24.705
  0
LINE
  8
0
 10
2.34151
 20
-24.705
 11
2.20357
 21
-24.4876
  0
LINE
  8
0
 10
2.20357
 20
-24.4876
 11
2.09395
 21
-24.2547
  0
LINE
  8
0
 10
2.09395
 20
-24.2547
 11
2.0144
 21
-24.0098
  0
LINE
  8
0
 10
2.0144
 20
-24.0098
 11
1.96616
 21
-23.7569
  0
LINE
  8
0
 10
1.96616
 20
-23.7569
 11
1.95
 21
-23.5
  0
LINE
  8
0
 10
1.95
 20
-23.5
 11
1.96616
 21
-23.2431
  0
LINE
  8
0
 10
1.96616
 20
-23.2431
 11
2.0144
 21
-22.9902
  0
LINE
  8
0
 10
2.0144
 20
-22.9902
 11
2.09395
 21
-22.7453
  0
LINE
  8
0
 10
2.09395
 20
-22.7453
 11
2.20357
 21
-22.5124
  0
LINE
  8
0
 10
2.20357
 20
-22.5124
 11
2.34151
 21
-22.295
  0
LINE
  8
0
 10
2.34151
 20
-22.295
 11
2.5056
 21
-22.0967
  0
LINE
  8
0
 10
2.5056
 20
-22.0967
 11
2.69327
 21
-21.9204
  0
LINE
  8
0
 10
2.69327
 20
-21.9204
 11
2.90155
 21
-21.7691
  0
LINE
  8
0
 10
2.90155
 20
-21.7691
 11
3.12715
 21
-21.6451
  0
LINE
  8
0
 10
3.12715
 20
-21.6451
 11
3.3665
 21
-21.5503
  0
LINE
  8
0
 10
3.3665
 20
-21.5503
 11
3.61586
 21
-21.4863
  0
LINE
  8
0
 10
3.61586
 20
-21.4863
 11
3.87128
 21
-21.454
  0
LINE
  8
0
 10
3.87128
 20
-21.454
 11
4.12871
 21
-21.454
  0
LINE
  8
0
 10
4.12871
 20
-21.454
 11
4.38412
 21
-21.4863
  0
LINE
  8
0
 10
4.38412
 20
-21.4863
 11
4.63348
 21
-21.5503
  0
LINE
  8
0
 10
4.63348
 20
-21.5503
 11
4.87283
 21
-21.6451
  0
LINE
  8
0
 10
4.87283
 20
-21.6451
 11
5.09843
 21
-21.7691
  0
LINE
  8
0
 10
5.09843
 20
-21.7691
 11
5.30672
 21
-21.9204
  0
LINE
  8
0
 10
5.30672
 20
-21.9204
 11
5.49438
 21
-22.0967
  0
LINE
  8
0
 10
5.49438
 20
-22.0967
 11
5.65848
 21
-22.295
  0
LINE
  8
0
 10
5.65848
 20
-22.295
 11
5.79642
 21
-22.5124
  0
LINE
  8
0
 10
5.79642
 20
-22.5124
 11
5.90604
 21
-22.7453
  0
LINE
  8
0
 10
5.90604
 20
-22.7453
 11
5.98558
 21
-22.9902
  0
LINE
  8
0
 10
5.98558
 20
-22.9902
 11
6.03383
 21
-23.2431
  0
LINE
  8
0
 10
6.03383
 20
-23.2431
 11
6.04999
 21
-23.5
  0
LINE
  8
0
 10
6.04999
 20
-23.5
 11
6.03383
 21
-23.7569
  0
LINE
  8
0
 10
6.03383
 20
-23.7569
 11
5.98558
 21
-24.0098
  0
LINE
  8
0
 10
5.98558
 20
-24.0098
 11
5.90604
 21
-24.2547
  0
LINE
  8
0
 10
5.90604
 20
-24.2547
 11
5.79642
 21
-24.4876
  0
LINE
  8
0
 10
5.79642
 20
-24.4876
 11
5.65848
 21
-24.705
  0
LINE
  8
0
 10
5.65848
 20
-24.705
 11
5.49438
 21
-24.9033
  0
LINE
  8
0
 10
5.49438
 20
-24.9033
 11
5.30672
 21
-25.0795
  0
LINE
  8
0
 10
5.30672
 20
-25.0795
 11
5.09843
 21
-25.2309
  0
LINE
  8
0
 10
5.09843
 20
-25.2309
 11
4.87283
 21
-25.3549
  0
LINE
  8
0
 10
4.87283
 20
-25.3549
 11
4.63348
 21
-25.4497
  0
LINE
  8
0
 10
4.63348
 20
-25.4497
 11
4.38412
 21
-25.5137
  0
LINE
  8
0
 10
4.38412
 20
-25.5137
 11
4.12871
 21
-25.5459
  0
LINE
  8
0
 10
4.12871
 20
-25.5459
 11
3.87128
 21
-25.5459
  0
LINE
  8
0
 10
-28.1287
 20
-25.5459
 11
-28.3841
 21
-25.5137
  0
LINE
  8
0
 10
-28.3841
 20
-25.5137
 11
-28.6335
 21
-25.4497
  0
LINE
  8
0
 10
-28.6335
 20
-25.4497
 11
-28.8728
 21
-25.3549
  0
LINE
  8
0
 10
-28.8728
 20
-25.3549
 11
-29.0984
 21
-25.2309
  0
LINE
  8
0
 10
-29.0984
 20
-25.2309
 11
-29.3067
 21
-25.0795
  0
LINE
  8
0
 10
-29.3067
 20
-25.0795
 11
-29.4944
 21
-24.9033
  0
LINE
  8
0
 10
-29.4944
 20
-24.9033
 11
-29.6585
 21
-24.705
  0
LINE
  8
0
 10
-29.6585
 20
-24.705
 11
-29.7964
 21
-24.4876
  0
LINE
  8
0
 10
-29.7964
 20
-24.4876
 11
-29.906
 21
-24.2547
  0
LINE
  8
0
 10
-29.906
 20
-24.2547
 11
-29.9856
 21
-24.0098
  0
LINE
  8
0
 10
-29.9856
 20
-24.0098
 11
-30.0338
 21
-23.7569
  0
LINE
  8
0
 10
-30.0338
 20
-23.7569
 11
-30.05
 21
-23.5
  0
LINE
  8
0
 10
-30.05
 20
-23.5
 11
-30.0338
 21
-23.2431
  0
LINE
  8
0
 10
-30.0338
 20
-23.2431
 11
-29.9856
 21
-22.9902
  0
LINE
  8
0
 10
-29.9856
 20
-22.9902
 11
-29.906
 21
-22.7453
  0
LINE
  8
0
 10
-29.906
 20
-22.7453
 11
-29.7964
 21
-22.5124
  0
LINE
  8
0
 10
-29.7964
 20
-22.5124
 11
-29.6585
 21
-22.295
  0
LINE
  8
0
 10
-29.6585
 20
-22.295
 11
-29.4944
 21
-22.0967
  0
LINE
  8
0
 10
-29.4944
 20
-22.0967
 11
-29.3067
 21
-21.9204
  0
LINE
  8
0
 10
-29.3067
 20
-21.9204
 11
-29.0984
 21
-21.7691
  0
LINE
  8
0
 10
-29.0984
 20
-21.7691
 11
-28.8728
 21
-21.6451
  0
LINE
  8
0
 10
-28.8728
 20
-21.6451
 11
-28.6335
 21
-21.5503
  0
LINE
  8
0
 10
-28.6335
 20
-21.5503
 11
-28.3841
 21
-21.4863
  0
LINE
  8
0
 10
-28.3841
 20
-21.4863
 11
-28.1287
 21
-21.454
  0
LINE
  8
0
 10
-28.1287
 20
-21.454
 11
-27.8713
 21
-21.454
  0
LINE
  8
0
 10
-27.8713
 20
-21.454
 11
-27.6159
 21
-21.4863
  0
LINE
  8
0
 10
-27.6159
 20
-21.4863
 11
-27.3665
 21
-21.5503
  0
LINE
  8
0
 10
-27.3665
 20
-21.5503
 11
-27.1272
 21
-21.6451
  0
LINE
  8
0
 10
-27.1272
 20
-21.6451
 11
-26.9016
 21
-21.7691
  0
LINE
  8
0
 10
-26.9016
 20
-21.7691
 11
-26.6933
 21
-21.9204
  0
LINE
  8
0
 10
-26.6933
 20
-21.9204
 11
-26.5056
 21
-22.0967
  0
LINE
  8
0
 10
-26.5056
 20
-22.0967
 11
-26.3415
 21
-22.295
  0
LINE
  8
0
 10
-26.3415
 20
-22.295
 11
-26.2036
 21
-22.5124
  0
LINE
  8
0
 10
-26.2036
 20
-22.5124
 11
-26.0939
 21
-22.7453
  0
LINE
  8
0
 10
-26.0939
 20
-22.7453
 11
-26.0144
 21
-22.9902
  0
LINE
  8
0
 10
-26.0144
 20
-22.9902
 11
-25.9662
 21
-23.2431
  0
LINE
  8
0
 10
-25.9662
 20
-23.2431
 11
-25.95
 21
-23.5
  0
LINE
  8
0
 10
-25.95
 20
-23.5
 11
-25.9662
 21
-23.7569
  0
LINE
  8
0
 10
-25.9662
 20
-23.7569
 11
-26.0144
 21
-24.0098
  0
LINE
  8
0
 10
-26.0144
 20
-24.0098
 11
-26.0939
 21
-24.2547
  0
LINE
  8
0
 10
-26.0939
 20
-24.2547
 11
-26.2036
 21
-24.4876
  0
LINE
  8
0
 10
-26.2036
 20
-24.4876
 11
-26.3415
 21
-24.705
  0
LINE
  8
0
 10
-26.3415
 20
-24.705
 11
-26.5056
 21
-24.9033
  0
LINE
  8
0
 10
-26.5056
 20
-24.9033
 11
-26.6933
 21
-25.0795
  0
LINE
  8
0
 10
-26.6933
 20
-25.0795
 11
-26.9016
 21
-25.2309
  0
LINE
  8
0
 10
-26.9016
 20
-25.2309
 11
-27.1272
 21
-25.3549
  0
LINE
  8
0
 10
-27.1272
 20
-25.3549
 11
-27.3665
 21
-25.4497
  0
LINE
  8
0
 10
-27.3665
 20
-25.4497
 11
-27.6159
 21
-25.5137
  0
LINE
  8
0
 10
-27.6159
 20
-25.5137
 11
-27.8713
 21
-25.5459
  0
LINE
  8
0
 10
-27.8713
 20
-25.5459
 11
-28.1287
 21
-25.5459
  0
LINE
  8
0
 10
-4.12871
 20
-25.5459
 11
-4.38412
 21
-25.5137
  0
LINE
  8
0
 10
-4.38412
 20
-25.5137
 11
-4.63348
 21
-25.4497
  0
LINE
  8
0
 10
-4.63348
 20
-25.4497
 11
-4.87283
 21
-25.3549
  0
LINE
  8
0
 10
-4.87283
 20
-25.3549
 11
-5.09843
 21
-25.2309
  0
LINE
  8
0
 10
-5.09843
 20
-25.2309
 11
-5.30672
 21
-25.0795
  0
LINE
  8
0
 10
-5.30672
 20
-25.0795
 11
-5.49438
 21
-24.9033
  0
LINE
  8
0
 10
-5.49438
 20
-24.9033
 11
-5.65848
 21
-24.705
  0
LINE
  8
0
 10
-5.65848
 20
-24.705
 11
-5.79642
 21
-24.4876
  0
LINE
  8
0
 10
-5.79642
 20
-24.4876
 11
-5.90604
 21
-24.2547
  0
LINE
  8
0
 10
-5.90604
 20
-24.2547
 11
-5.98558
 21
-24.0098
  0
LINE
  8
0
 10
-5.98558
 20
-24.0098
 11
-6.03383
 21
-23.7569
  0
LINE
  8
0
 10
-6.03383
 20
-23.7569
 11
-6.04999
 21
-23.5
  0
LINE
  8
0
 10
-6.04999
 20
-23.5
 11
-6.03383
 21
-23.2431
  0
LINE
  8
0
 10
-6.03383
 20
-23.2431
 11
-5.98558
 21
-22.9902
  0
LINE
  8
0
 10
-5.98558
 20
-22.9902
 11
-5.90604
 21
-22.7453
  0
LINE
  8
0
 10
-5.90604
 20
-22.7453
 11
-5.79642
 21
-22.5124
  0
LINE
  8
0
 10
-5.79642
 20
-22.5124
 11
-5.65848
 21
-22.295
  0
LINE
  8
0
 10
-5.65848
 20
-22.295
 11
-5.49438
 21
-22.0967
  0
LINE
  8
0
 10
-5.49438
 20
-22.0967
 11
-5.30672
 21
-21.9204
  0
LINE
  8
0
 10
-5.30672
 20
-21.9204
 11
-5.09843
 21
-21.7691
  0
LINE
  8
0
 10
-5.09843
 20
-21.7691
 11
-4.87283
 21
-21.6451
  0
LINE
  8
0
 10
-4.87283
 20
-21.6451
 11
-4.63348
 21
-21.5503
  0
LINE
  8
0
 10
-4.63348
 20
-21.5503
 11
-4.38412
 21
-21.4863
  0
LINE
  8
0
 10
-4.38412
 20
-21.4863
 11
-4.12871
 21
-21.454
  0
LINE
  8
0
 10
-4.12871
 20
-21.454
 11
-3.87128
 21
-21.454
  0
LINE
  8
0
 10
-3.87128
 20
-21.454
 11
-3.61586
 21
-21.4863
  0
LINE
  8
0
 10
-3.61586
 20
-21.4863
 11
-3.3665
 21
-21.5503
  0
LINE
  8
0
 10
-3.3665
 20
-21.5503
 11
-3.12715
 21
-21.6451
  0
LINE
  8
0
 10
-3.12715
 20
-21.6451
 11
-2.90155
 21
-21.7691
  0
LINE
  8
0
 10
-2.90155
 20
-21.7691
 11
-2.69327
 21
-21.9204
  0
LINE
  8
0
 10
-2.69327
 20
-21.9204
 11
-2.5056
 21
-22.0967
  0
LINE
  8
0
 10
-2.5056
 20
-22.0967
 11
-2.34151
 21
-22.295
  0
LINE
  8
0
 10
-2.34151
 20
-22.295
 11
-2.20357
 21
-22.5124
  0
LINE
  8
0
 10
-2.20357
 20
-22.5124
 11
-2.09395
 21
-22.7453
  0
LINE
  8
0
 10
-2.09395
 20
-22.7453
 11
-2.0144
 21
-22.9902
  0
LINE
  8
0
 10
-2.0144
 20
-22.9902
 11
-1.96616
 21
-23.2431
  0
LINE
  8
0
 10
-1.96616
 20
-23.2431
 11
-1.95
 21
-23.5
  0
LINE
  8
0
 10
-1.95
 20
-23.5
 11
-1.96616
 21
-23.7569
  0
LINE
  8
0
 10
-1.96616
 20
-23.7569
 11
-2.0144
 21
-24.0098
  0
LINE
  8
0
 10
-2.0144
 20
-24.0098
 11
-2.09395
 21
-24.2547
  0
LINE
  8
0
 10
-2.09395
 20
-24.2547
 11
-2.20357
 21
-24.4876
  0
LINE
  8
0
 10
-2.20357
 20
-24.4876
 11
-2.34151
 21
-24.705
  0
LINE
  8
0
 10
-2.34151
 20
-24.705
 11
-2.5056
 21
-24.9033
  0
LINE
  8
0
 10
-2.5056
 20
-24.9033
 11
-2.69327
 21
-25.0795
  0
LINE
  8
0
 10
-2.69327
 20
-25.0795
 11
-2.90155
 21
-25.2309
  0
LINE
  8
0
 10
-2.90155
 20
-25.2309
 11
-3.12715
 21
-25.3549
  0
LINE
  8
0
 10
-3.12715
 20
-25.3549
 11
-3.3665
 21
-25.4497
  0
LINE
  8
0
 10
-3.3665
 20
-25.4497
 11
-3.61586
 21
-25.5137
  0
LINE
  8
0
 10
-3.61586
 20
-25.5137
 11
-3.87128
 21
-25.5459
  0
LINE
  8
0
 10
-3.87128
 20
-25.5459
 11
-4.12871
 21
-25.5459
  0
LINE
  8
0
 10
-0.0973206
 20
-30.0469
 11
-0.290436
 21
-30.0225
  0
LINE
  8
0
 10
-0.290436
 20
-30.0225
 11
-0.478973
 21
-29.9741
  0
LINE
  8
0
 10
-0.478973
 20
-29.9741
 11
-0.659958
 21
-29.9025
  0
LINE
  8
0
 10
-0.659958
 20
-29.9025
 11
-0.830521
 21
-29.8087
  0
LINE
  8
0
 10
-0.830521
 20
-29.8087
 11
-0.988007
 21
-29.6943
  0
LINE
  8
0
 10
-0.988007
 20
-29.6943
 11
-1.1299
 21
-29.561
  0
LINE
  8
0
 10
-1.1299
 20
-29.561
 11
-1.25397
 21
-29.4111
  0
LINE
  8
0
 10
-1.25397
 20
-29.4111
 11
-1.35826
 21
-29.2467
  0
LINE
  8
0
 10
-1.35826
 20
-29.2467
 11
-1.44115
 21
-29.0706
  0
LINE
  8
0
 10
-1.44115
 20
-29.0706
 11
-1.5013
 21
-28.8855
  0
LINE
  8
0
 10
-1.5013
 20
-28.8855
 11
-1.53777
 21
-28.6943
  0
LINE
  8
0
 10
-1.53777
 20
-28.6943
 11
-1.54999
 21
-28.5
  0
LINE
  8
0
 10
-1.54999
 20
-28.5
 11
-1.53777
 21
-28.3057
  0
LINE
  8
0
 10
-1.53777
 20
-28.3057
 11
-1.5013
 21
-28.1145
  0
LINE
  8
0
 10
-1.5013
 20
-28.1145
 11
-1.44115
 21
-27.9294
  0
LINE
  8
0
 10
-1.44115
 20
-27.9294
 11
-1.35826
 21
-27.7533
  0
LINE
  8
0
 10
-1.35826
 20
-27.7533
 11
-1.25397
 21
-27.5889
  0
LINE
  8
0
 10
-1.25397
 20
-27.5889
 11
-1.1299
 21
-27.4389
  0
LINE
  8
0
 10
-1.1299
 20
-27.4389
 11
-0.988007
 21
-27.3057
  0
LINE
  8
0
 10
-0.988007
 20
-27.3057
 11
-0.830521
 21
-27.1913
  0
LINE
  8
0
 10
-0.830521
 20
-27.1913
 11
-0.659958
 21
-27.0975
  0
LINE
  8
0
 10
-0.659958
 20
-27.0975
 11
-0.478973
 21
-27.0258
  0
LINE
  8
0
 10
-0.478973
 20
-27.0258
 11
-0.290436
 21
-26.9774
  0
LINE
  8
0
 10
-0.290436
 20
-26.9774
 11
-0.0973206
 21
-26.953
  0
LINE
  8
0
 10
-0.0973206
 20
-26.953
 11
0.0973206
 21
-26.953
  0
LINE
  8
0
 10
0.0973206
 20
-26.953
 11
0.290436
 21
-26.9774
  0
LINE
  8
0
 10
0.290436
 20
-26.9774
 11
0.478973
 21
-27.0258
  0
LINE
  8
0
 10
0.478973
 20
-27.0258
 11
0.659958
 21
-27.0975
  0
LINE
  8
0
 10
0.659958
 20
-27.0975
 11
0.830521
 21
-27.1913
  0
LINE
  8
0
 10
0.830521
 20
-27.1913
 11
0.988007
 21
-27.3057
  0
LINE
  8
0
 10
0.988007
 20
-27.3057
 11
1.1299
 21
-27.4389
  0
LINE
  8
0
 10
1.1299
 20
-27.4389
 11
1.25397
 21
-27.5889
  0
LINE
  8
0
 10
1.25397
 20
-27.5889
 11
1.35826
 21
-27.7533
  0
LINE
  8
0
 10
1.35826
 20
-27.7533
 11
1.44115
 21
-27.9294
  0
LINE
  8
0
 10
1.44115
 20
-27.9294
 11
1.5013
 21
-28.1145
  0
LINE
  8
0
 10
1.5013
 20
-28.1145
 11
1.53777
 21
-28.3057
  0
LINE
  8
0
 10
1.53777
 20
-28.3057
 11
1.54999
 21
-28.5
  0
LINE
  8
0
 10
1.54999
 20
-28.5
 11
1.53777
 21
-28.6943
  0
LINE
  8
0
 10
1.53777
 20
-28.6943
 11
1.5013
 21
-28.8855
  0
LINE
  8
0
 10
1.5013
 20
-28.8855
 11
1.44115
 21
-29.0706
  0
LINE
  8
0
 10
1.44115
 20
-29.0706
 11
1.35826
 21
-29.2467
  0
LINE
  8
0
 10
1.35826
 20
-29.2467
 11
1.25397
 21
-29.4111
  0
LINE
  8
0
 10
1.25397
 20
-29.4111
 11
1.1299
 21
-29.561
  0
LINE
  8
0
 10
1.1299
 20
-29.561
 11
0.988007
 21
-29.6943
  0
LINE
  8
0
 10
0.988007
 20
-29.6943
 11
0.830521
 21
-29.8087
  0
LINE
  8
0
 10
0.830521
 20
-29.8087
 11
0.659958
 21
-29.9025
  0
LINE
  8
0
 10
0.659958
 20
-29.9025
 11
0.478973
 21
-29.9741
  0
LINE
  8
0
 10
0.478973
 20
-29.9741
 11
0.290436
 21
-30.0225
  0
LINE
  8
0
 10
0.290436
 20
-30.0225
 11
0.0973206
 21
-30.0469
  0
LINE
  8
0
 10
0.0973206
 20
-30.0469
 11
-0.0973206
 21
-30.0469
  0
LINE
  8
0
 10
23.9027
 20
-30.0469
 11
23.7095
 21
-30.0225
  0
LINE
  8
0
 10
23.7095
 20
-30.0225
 11
23.521
 21
-29.9741
  0
LINE
  8
0
 10
23.521
 20
-29.9741
 11
23.34
 21
-29.9025
  0
LINE
  8
0
 10
23.34
 20
-29.9025
 11
23.1695
 21
-29.8087
  0
LINE
  8
0
 10
23.1695
 20
-29.8087
 11
23.012
 21
-29.6943
  0
LINE
  8
0
 10
23.012
 20
-29.6943
 11
22.8701
 21
-29.561
  0
LINE
  8
0
 10
22.8701
 20
-29.561
 11
22.746
 21
-29.4111
  0
LINE
  8
0
 10
22.746
 20
-29.4111
 11
22.6417
 21
-29.2467
  0
LINE
  8
0
 10
22.6417
 20
-29.2467
 11
22.5588
 21
-29.0706
  0
LINE
  8
0
 10
22.5588
 20
-29.0706
 11
22.4987
 21
-28.8855
  0
LINE
  8
0
 10
22.4987
 20
-28.8855
 11
22.4622
 21
-28.6943
  0
LINE
  8
0
 10
22.4622
 20
-28.6943
 11
22.45
 21
-28.5
  0
LINE
  8
0
 10
22.45
 20
-28.5
 11
22.4622
 21
-28.3057
  0
LINE
  8
0
 10
22.4622
 20
-28.3057
 11
22.4987
 21
-28.1145
  0
LINE
  8
0
 10
22.4987
 20
-28.1145
 11
22.5588
 21
-27.9294
  0
LINE
  8
0
 10
22.5588
 20
-27.9294
 11
22.6417
 21
-27.7533
  0
LINE
  8
0
 10
22.6417
 20
-27.7533
 11
22.746
 21
-27.5889
  0
LINE
  8
0
 10
22.746
 20
-27.5889
 11
22.8701
 21
-27.4389
  0
LINE
  8
0
 10
22.8701
 20
-27.4389
 11
23.012
 21
-27.3057
  0
LINE
  8
0
 10
23.012
 20
-27.3057
 11
23.1695
 21
-27.1913
  0
LINE
  8
0
 10
23.1695
 20
-27.1913
 11
23.34
 21
-27.0975
  0
LINE
  8
0
 10
23.34
 20
-27.0975
 11
23.521
 21
-27.0258
  0
LINE
  8
0
 10
23.521
 20
-27.0258
 11
23.7095
 21
-26.9774
  0
LINE
  8
0
 10
23.7095
 20
-26.9774
 11
23.9027
 21
-26.953
  0
LINE
  8
0
 10
23.9027
 20
-26.953
 11
24.0973
 21
-26.953
  0
LINE
  8
0
 10
24.0973
 20
-26.953
 11
24.2904
 21
-26.9774
  0
LINE
  8
0
 10
24.2904
 20
-26.9774
 11
24.479
 21
-27.0258
  0
LINE
  8
0
 10
24.479
 20
-27.0258
 11
24.66
 21
-27.0975
  0
LINE
  8
0
 10
24.66
 20
-27.0975
 11
24.8305
 21
-27.1913
  0
LINE
  8
0
 10
24.8305
 20
-27.1913
 11
24.988
 21
-27.3057
  0
LINE
  8
0
 10
24.988
 20
-27.3057
 11
25.1299
 21
-27.4389
  0
LINE
  8
0
 10
25.1299
 20
-27.4389
 11
25.254
 21
-27.5889
  0
LINE
  8
0
 10
25.254
 20
-27.5889
 11
25.3583
 21
-27.7533
  0
LINE
  8
0
 10
25.3583
 20
-27.7533
 11
25.4411
 21
-27.9294
  0
LINE
  8
0
 10
25.4411
 20
-27.9294
 11
25.5013
 21
-28.1145
  0
LINE
  8
0
 10
25.5013
 20
-28.1145
 11
25.5378
 21
-28.3057
  0
LINE
  8
0
 10
25.5378
 20
-28.3057
 11
25.55
 21
-28.5
  0
LINE
  8
0
 10
25.55
 20
-28.5
 11
25.5378
 21
-28.6943
  0
LINE
  8
0
 10
25.5378
 20
-28.6943
 11
25.5013
 21
-28.8855
  0
LINE
  8
0
 10
25.5013
 20
-28.8855
 11
25.4411
 21
-29.0706
  0
LINE
  8
0
 10
25.4411
 20
-29.0706
 11
25.3583
 21
-29.2467
  0
LINE
  8
0
 10
25.3583
 20
-29.2467
 11
25.254
 21
-29.4111
  0
LINE
  8
0
 10
25.254
 20
-29.4111
 11
25.1299
 21
-29.561
  0
LINE
  8
0
 10
25.1299
 20
-29.561
 11
24.988
 21
-29.6943
  0
LINE
  8
0
 10
24.988
 20
-29.6943
 11
24.8305
 21
-29.8087
  0
LINE
  8
0
 10
24.8305
 20
-29.8087
 11
24.66
 21
-29.9025
  0
LINE
  8
0
 10
24.66
 20
-29.9025
 11
24.479
 21
-29.9741
  0
LINE
  8
0
 10
24.479
 20
-29.9741
 11
24.2904
 21
-30.0225
  0
LINE
  8
0
 10
24.2904
 20
-30.0225
 11
24.0973
 21
-30.0469
  0
LINE
  8
0
 10
24.0973
 20
-30.0469
 11
23.9027
 21
-30.0469
  0
LINE
  8
0
 10
-24.0973
 20
-30.0469
 11
-24.2904
 21
-30.0225
  0
LINE
  8
0
 10
-24.2904
 20
-30.0225
 11
-24.479
 21
-29.9741
  0
LINE
  8
0
 10
-24.479
 20
-29.9741
 11
-24.66
 21
-29.9025
  0
LINE
  8
0
 10
-24.66
 20
-29.9025
 11
-24.8305
 21
-29.8087
  0
LINE
  8
0
 10
-24.8305
 20
-29.8087
 11
-24.988
 21
-29.6943
  0
LINE
  8
0
 10
-24.988
 20
-29.6943
 11
-25.1299
 21
-29.561
  0
LINE
  8
0
 10
-25.1299
 20
-29.561
 11
-25.254
 21
-29.4111
  0
LINE
  8
0
 10
-25.254
 20
-29.4111
 11
-25.3583
 21
-29.2467
  0
LINE
  8
0
 10
-25.3583
 20
-29.2467
 11
-25.4411
 21
-29.0706
  0
LINE
  8
0
 10
-25.4411
 20
-29.0706
 11
-25.5013
 21
-28.8855
  0
LINE
  8
0
 10
-25.5013
 20
-28.8855
 11
-25.5378
 21
-28.6943
  0
LINE
  8
0
 10
-25.5378
 20
-28.6943
 11
-25.55
 21
-28.5
  0
LINE
  8
0
 10
-25.55
 20
-28.5
 11
-25.5378
 21
-28.3057
  0
LINE
  8
0
 10
-25.5378
 20
-28.3057
 11
-25.5013
 21
-28.1145
  0
LINE
  8
0
 10
-25.5013
 20
-28.1145
 11
-25.4411
 21
-27.9294
  0
LINE
  8
0
 10
-25.4411
 20
-27.9294
 11
-25.3583
 21
-27.7533
  0
LINE
  8
0
 10
-25.3583
 20
-27.7533
 11
-25.254
 21
-27.5889
  0
LINE
  8
0
 10
-25.254
 20
-27.5889
 11
-25.1299
 21
-27.4389
  0
LINE
  8
0
 10
-25.1299
 20
-27.4389
 11
-24.988
 21
-27.3057
  0
LINE
  8
0
 10
-24.988
 20
-27.3057
 11
-24.8305
 21
-27.1913
  0
LINE
  8
0
 10
-24.8305
 20
-27.1913
 11
-24.66
 21
-27.0975
  0
LINE
  8
0
 10
-24.66
 20
-27.0975
 11
-24.479
 21
-27.0258
  0
LINE
  8
0
 10
-24.479
 20
-27.0258
 11
-24.2904
 21
-26.9774
  0
LINE
  8
0
 10
-24.2904
 20
-26.9774
 11
-24.0973
 21
-26.953
  0
LINE
  8
0
 10
-24.0973
 20
-26.953
 11
-23.9027
 21
-26.953
  0
LINE
  8
0
 10
-23.9027
 20
-26.953
 11
-23.7095
 21
-26.9774
  0
LINE
  8
0
 10
-23.7095
 20
-26.9774
 11
-23.521
 21
-27.0258
  0
LINE
  8
0
 10
-23.521
 20
-27.0258
 11
-23.34
 21
-27.0975
  0
LINE
  8
0
 10
-23.34
 20
-27.0975
 11
-23.1695
 21
-27.1913
  0
LINE
  8
0
 10
-23.1695
 20
-27.1913
 11
-23.012
 21
-27.3057
  0
LINE
  8
0
 10
-23.012
 20
-27.3057
 11
-22.8701
 21
-27.4389
  0
LINE
  8
0
 10
-22.8701
 20
-27.4389
 11
-22.746
 21
-27.5889
  0
LINE
  8
0
 10
-22.746
 20
-27.5889
 11
-22.6417
 21
-27.7533
  0
LINE
  8
0
 10
-22.6417
 20
-27.7533
 11
-22.5588
 21
-27.9294
  0
LINE
  8
0
 10
-22.5588
 20
-27.9294
 11
-22.4987
 21
-28.1145
  0
LINE
  8
0
 10
-22.4987
 20
-28.1145
 11
-22.4622
 21
-28.3057
  0
LINE
  8
0
 10
-22.4622
 20
-28.3057
 11
-22.45
 21
-28.5
  0
LINE
  8
0
 10
-22.45
 20
-28.5
 11
-22.4622
 21
-28.6943
  0
LINE
  8
0
 10
-22.4622
 20
-28.6943
 11
-22.4987
 21
-28.8855
  0
LINE
  8
0
 10
-22.4987
 20
-28.8855
 11
-22.5588
 21
-29.0706
  0
LINE
  8
0
 10
-22.5588
 20
-29.0706
 11
-22.6417
 21
-29.2467
  0
LINE
  8
0
 10
-22.6417
 20
-29.2467
 11
-22.746
 21
-29.4111
  0
LINE
  8
0
 10
-22.746
 20
-29.4111
 11
-22.8701
 21
-29.561
  0
LINE
  8
0
 10
-22.8701
 20
-29.561
 11
-23.012
 21
-29.6943
  0
LINE
  8
0
 10
-23.012
 20
-29.6943
 11
-23.1695
 21
-29.8087
  0
LINE
  8
0
 10
-23.1695
 20
-29.8087
 11
-23.34
 21
-29.9025
  0
LINE
  8
0
 10
-23.34
 20
-29.9025
 11
-23.521
 21
-29.9741
  0
LINE
  8
0
 10
-23.521
 20
-29.9741
 11
-23.7095
 21
-30.0225
  0
LINE
  8
0
 10
-23.7095
 20
-30.0225
 11
-23.9027
 21
-30.0469
  0
LINE
  8
0
 10
-23.9027
 20
-30.0469
 11
-24.0973
 21
-30.0469
  0
ENDSEC
  0
SECTION
  2
OBJECTS
  0
DICTIONARY
  0
ENDSEC
  0
EOF
