  0
SECTION
  2
BLOCKS
  0
ENDSEC
  0
SECTION
  2
ENTITIES
  0
LINE
  8
0
 10
33.2725
 20
-34.3776
 11
33.9695
 21
-34.0225
  0
LINE
  8
0
 10
33.9695
 20
-34.0225
 11
34.5225
 21
-33.4695
  0
LINE
  8
0
 10
34.5225
 20
-33.4695
 11
34.8776
 21
-32.7725
  0
LINE
  8
0
 10
34.8776
 20
-32.7725
 11
35
 21
-32
  0
LINE
  8
0
 10
35
 20
-32
 11
35
 21
-23
  0
LINE
  8
0
 10
35
 20
-23
 11
34.8776
 21
-22.2274
  0
LINE
  8
0
 10
34.8776
 20
-22.2274
 11
34.5225
 21
-21.5305
  0
LINE
  8
0
 10
34.5225
 20
-21.5305
 11
14.1578
 21
10.2862
  0
LINE
  8
0
 10
14.1578
 20
10.2862
 11
12.7569
 21
11.9796
  0
LINE
  8
0
 10
12.7569
 20
11.9796
 11
11.1549
 21
13.484
  0
LINE
  8
0
 10
11.1549
 20
13.484
 11
9.37697
 21
14.7757
  0
LINE
  8
0
 10
9.37697
 20
14.7757
 11
7.45113
 21
15.8345
  0
LINE
  8
0
 10
7.45113
 20
15.8345
 11
5.40779
 21
16.6435
  0
LINE
  8
0
 10
5.40779
 20
16.6435
 11
3.27916
 21
17.19
  0
LINE
  8
0
 10
3.27916
 20
17.19
 11
1.09883
 21
17.4655
  0
LINE
  8
0
 10
1.09883
 20
17.4655
 11
-1.09883
 21
17.4655
  0
LINE
  8
0
 10
-1.09883
 20
17.4655
 11
-3.27916
 21
17.19
  0
LINE
  8
0
 10
-3.27916
 20
17.19
 11
-5.40779
 21
16.6435
  0
LINE
  8
0
 10
-5.40779
 20
16.6435
 11
-7.45113
 21
15.8345
  0
LINE
  8
0
 10
-7.45113
 20
15.8345
 11
-9.37697
 21
14.7757
  0
LINE
  8
0
 10
-9.37697
 20
14.7757
 11
-11.1549
 21
13.484
  0
LINE
  8
0
 10
-11.1549
 20
13.484
 11
-12.7569
 21
11.9796
  0
LINE
  8
0
 10
-12.7569
 20
11.9796
 11
-14.1578
 21
10.2862
  0
LINE
  8
0
 10
-14.1578
 20
10.2862
 11
-34.5225
 21
-21.5305
  0
LINE
  8
0
 10
-34.5225
 20
-21.5305
 11
-34.8776
 21
-22.2274
  0
LINE
  8
0
 10
-34.8776
 20
-22.2274
 11
-35
 21
-23
  0
LINE
  8
0
 10
-35
 20
-23
 11
-35
 21
-32
  0
LINE
  8
0
 10
-35
 20
-32
 11
-34.8776
 21
-32.7725
  0
LINE
  8
0
 10
-34.8776
 20
-32.7725
 11
-34.5225
 21
-33.4695
  0
LINE
  8
0
 10
-34.5225
 20
-33.4695
 11
-33.9695
 21
-34.0225
  0
LINE
  8
0
 10
-33.9695
 20
-34.0225
 11
-33.2725
 21
-34.3776
  0
LINE
  8
0
 10
-33.2725
 20
-34.3776
 11
-32.5
 21
-34.5
  0
LINE
  8
0
 10
-32.5
 20
-34.5
 11
32.5
 21
-34.5
  0
LINE
  8
0
 10
32.5
 20
-34.5
 11
33.2725
 21
-34.3776
  0
LINE
  8
0
 10
-0.320679
 20
9.28894
 11
-0.57193
 21
9.34509
  0
LINE
  8
0
 10
-0.57193
 20
9.34509
 11
-0.814148
 21
9.4323
  0
LINE
  8
0
 10
-0.814148
 20
9.4323
 11
-1.04353
 21
9.54918
  0
LINE
  8
0
 10
-1.04353
 20
9.54918
 11
-1.25645
 21
9.69388
  0
LINE
  8
0
 10
-1.25645
 20
9.69388
 11
-1.44955
 21
9.86414
  0
LINE
  8
0
 10
-1.44955
 20
9.86414
 11
-1.61981
 21
10.0572
  0
LINE
  8
0
 10
-1.61981
 20
10.0572
 11
-1.76451
 21
10.2702
  0
LINE
  8
0
 10
-1.76451
 20
10.2702
 11
-1.88139
 21
10.4995
  0
LINE
  8
0
 10
-1.88139
 20
10.4995
 11
-1.9686
 21
10.7418
  0
LINE
  8
0
 10
-1.9686
 20
10.7418
 11
-2.02475
 21
10.993
  0
LINE
  8
0
 10
-2.02475
 20
10.993
 11
-2.04898
 21
11.2493
  0
LINE
  8
0
 10
-2.04898
 20
11.2493
 11
-2.04089
 21
11.5066
  0
LINE
  8
0
 10
-2.04089
 20
11.5066
 11
-2.00063
 21
11.7609
  0
LINE
  8
0
 10
-2.00063
 20
11.7609
 11
-1.9288
 21
12.0081
  0
LINE
  8
0
 10
-1.9288
 20
12.0081
 11
-1.82655
 21
12.2444
  0
LINE
  8
0
 10
-1.82655
 20
12.2444
 11
-1.69551
 21
12.466
  0
LINE
  8
0
 10
-1.69551
 20
12.466
 11
-1.53772
 21
12.6694
  0
LINE
  8
0
 10
-1.53772
 20
12.6694
 11
-1.35568
 21
12.8514
  0
LINE
  8
0
 10
-1.35568
 20
12.8514
 11
-1.15227
 21
13.0092
  0
LINE
  8
0
 10
-1.15227
 20
13.0092
 11
-0.930679
 21
13.1403
  0
LINE
  8
0
 10
-0.930679
 20
13.1403
 11
-0.694412
 21
13.2425
  0
LINE
  8
0
 10
-0.694412
 20
13.2425
 11
-0.447189
 21
13.3143
  0
LINE
  8
0
 10
-0.447189
 20
13.3143
 11
-0.192917
 21
13.3546
  0
LINE
  8
0
 10
-0.192917
 20
13.3546
 11
0.0643768
 21
13.3627
  0
LINE
  8
0
 10
0.0643768
 20
13.3627
 11
0.320679
 21
13.3385
  0
LINE
  8
0
 10
0.320679
 20
13.3385
 11
0.57193
 21
13.2823
  0
LINE
  8
0
 10
0.57193
 20
13.2823
 11
0.814148
 21
13.1951
  0
LINE
  8
0
 10
0.814148
 20
13.1951
 11
1.04353
 21
13.0782
  0
LINE
  8
0
 10
1.04353
 20
13.0782
 11
1.25645
 21
12.9335
  0
LINE
  8
0
 10
1.25645
 20
12.9335
 11
1.44955
 21
12.7633
  0
LINE
  8
0
 10
1.44955
 20
12.7633
 11
1.61981
 21
12.5702
  0
LINE
  8
0
 10
1.61981
 20
12.5702
 11
1.76451
 21
12.3572
  0
LINE
  8
0
 10
1.76451
 20
12.3572
 11
1.88139
 21
12.1279
  0
LINE
  8
0
 10
1.88139
 20
12.1279
 11
1.9686
 21
11.8856
  0
LINE
  8
0
 10
1.9686
 20
11.8856
 11
2.02475
 21
11.6344
  0
LINE
  8
0
 10
2.02475
 20
11.6344
 11
2.04898
 21
11.3781
  0
LINE
  8
0
 10
2.04898
 20
11.3781
 11
2.04089
 21
11.1208
  0
LINE
  8
0
 10
2.04089
 20
11.1208
 11
2.00063
 21
10.8665
  0
LINE
  8
0
 10
2.00063
 20
10.8665
 11
1.9288
 21
10.6193
  0
LINE
  8
0
 10
1.9288
 20
10.6193
 11
1.82655
 21
10.383
  0
LINE
  8
0
 10
1.82655
 20
10.383
 11
1.69551
 21
10.1614
  0
LINE
  8
0
 10
1.69551
 20
10.1614
 11
1.53772
 21
9.95801
  0
LINE
  8
0
 10
1.53772
 20
9.95801
 11
1.35568
 21
9.77597
  0
LINE
  8
0
 10
1.35568
 20
9.77597
 11
1.15227
 21
9.61818
  0
LINE
  8
0
 10
1.15227
 20
9.61818
 11
0.930679
 21
9.48714
  0
LINE
  8
0
 10
0.930679
 20
9.48714
 11
0.694412
 21
9.3849
  0
LINE
  8
0
 10
0.694412
 20
9.3849
 11
0.447189
 21
9.31306
  0
LINE
  8
0
 10
0.447189
 20
9.31306
 11
0.192917
 21
9.2728
  0
LINE
  8
0
 10
0.192917
 20
9.2728
 11
-0.0643768
 21
9.26471
  0
LINE
  8
0
 10
-0.0643768
 20
9.26471
 11
-0.320679
 21
9.28894
  0
LINE
  8
0
 10
-8.12871
 20
5.95404
 11
-8.38412
 21
5.9863
  0
LINE
  8
0
 10
-8.38412
 20
5.9863
 11
-8.63348
 21
6.05032
  0
LINE
  8
0
 10
-8.63348
 20
6.05032
 11
-8.87283
 21
6.1451
  0
LINE
  8
0
 10
-8.87283
 20
6.1451
 11
-9.09843
 21
6.26912
  0
LINE
  8
0
 10
-9.09843
 20
6.26912
 11
-9.30672
 21
6.42044
  0
LINE
  8
0
 10
-9.30672
 20
6.42044
 11
-9.49438
 21
6.59666
  0
LINE
  8
0
 10
-9.49438
 20
6.59666
 11
-9.65848
 21
6.79503
  0
LINE
  8
0
 10
-9.65848
 20
6.79503
 11
-9.79642
 21
7.01239
  0
LINE
  8
0
 10
-9.79642
 20
7.01239
 11
-9.90604
 21
7.24533
  0
LINE
  8
0
 10
-9.90604
 20
7.24533
 11
-9.98558
 21
7.49017
  0
LINE
  8
0
 10
-9.98558
 20
7.49017
 11
-10.0338
 21
7.74306
  0
LINE
  8
0
 10
-10.0338
 20
7.74306
 11
-10.05
 21
8
  0
LINE
  8
0
 10
-10.05
 20
8
 11
-10.0338
 21
8.25693
  0
LINE
  8
0
 10
-10.0338
 20
8.25693
 11
-9.98558
 21
8.50981
  0
LINE
  8
0
 10
-9.98558
 20
8.50981
 11
-9.90604
 21
8.75465
  0
LINE
  8
0
 10
-9.90604
 20
8.75465
 11
-9.79642
 21
8.98759
  0
LINE
  8
0
 10
-9.79642
 20
8.98759
 11
-9.65848
 21
9.20496
  0
LINE
  8
0
 10
-9.65848
 20
9.20496
 11
-9.49438
 21
9.40332
  0
LINE
  8
0
 10
-9.49438
 20
9.40332
 11
-9.30672
 21
9.57954
  0
LINE
  8
0
 10
-9.30672
 20
9.57954
 11
-9.09843
 21
9.73087
  0
LINE
  8
0
 10
-9.09843
 20
9.73087
 11
-8.87283
 21
9.85489
  0
LINE
  8
0
 10
-8.87283
 20
9.85489
 11
-8.63348
 21
9.94966
  0
LINE
  8
0
 10
-8.63348
 20
9.94966
 11
-8.38412
 21
10.0137
  0
LINE
  8
0
 10
-8.38412
 20
10.0137
 11
-8.12871
 21
10.0459
  0
LINE
  8
0
 10
-8.12871
 20
10.0459
 11
-7.87128
 21
10.0459
  0
LINE
  8
0
 10
-7.87128
 20
10.0459
 11
-7.61586
 21
10.0137
  0
LINE
  8
0
 10
-7.61586
 20
10.0137
 11
-7.3665
 21
9.94966
  0
LINE
  8
0
 10
-7.3665
 20
9.94966
 11
-7.12715
 21
9.85489
  0
LINE
  8
0
 10
-7.12715
 20
9.85489
 11
-6.90155
 21
9.73087
  0
LINE
  8
0
 10
-6.90155
 20
9.73087
 11
-6.69327
 21
9.57954
  0
LINE
  8
0
 10
-6.69327
 20
9.57954
 11
-6.5056
 21
9.40332
  0
LINE
  8
0
 10
-6.5056
 20
9.40332
 11
-6.34151
 21
9.20496
  0
LINE
  8
0
 10
-6.34151
 20
9.20496
 11
-6.20357
 21
8.98759
  0
LINE
  8
0
 10
-6.20357
 20
8.98759
 11
-6.09395
 21
8.75465
  0
LINE
  8
0
 10
-6.09395
 20
8.75465
 11
-6.0144
 21
8.50981
  0
LINE
  8
0
 10
-6.0144
 20
8.50981
 11
-5.96616
 21
8.25693
  0
LINE
  8
0
 10
-5.96616
 20
8.25693
 11
-5.95
 21
8
  0
LINE
  8
0
 10
-5.95
 20
8
 11
-5.96616
 21
7.74306
  0
LINE
  8
0
 10
-5.96616
 20
7.74306
 11
-6.0144
 21
7.49017
  0
LINE
  8
0
 10
-6.0144
 20
7.49017
 11
-6.09395
 21
7.24533
  0
LINE
  8
0
 10
-6.09395
 20
7.24533
 11
-6.20357
 21
7.01239
  0
LINE
  8
0
 10
-6.20357
 20
7.01239
 11
-6.34151
 21
6.79503
  0
LINE
  8
0
 10
-6.34151
 20
6.79503
 11
-6.5056
 21
6.59666
  0
LINE
  8
0
 10
-6.5056
 20
6.59666
 11
-6.69327
 21
6.42044
  0
LINE
  8
0
 10
-6.69327
 20
6.42044
 11
-6.90155
 21
6.26912
  0
LINE
  8
0
 10
-6.90155
 20
6.26912
 11
-7.12715
 21
6.1451
  0
LINE
  8
0
 10
-7.12715
 20
6.1451
 11
-7.3665
 21
6.05032
  0
LINE
  8
0
 10
-7.3665
 20
6.05032
 11
-7.61586
 21
5.9863
  0
LINE
  8
0
 10
-7.61586
 20
5.9863
 11
-7.87128
 21
5.95404
  0
LINE
  8
0
 10
-7.87128
 20
5.95404
 11
-8.12871
 21
5.95404
  0
LINE
  8
0
 10
7.87128
 20
5.95404
 11
7.61586
 21
5.9863
  0
LINE
  8
0
 10
7.61586
 20
5.9863
 11
7.3665
 21
6.05032
  0
LINE
  8
0
 10
7.3665
 20
6.05032
 11
7.12715
 21
6.1451
  0
LINE
  8
0
 10
7.12715
 20
6.1451
 11
6.90155
 21
6.26912
  0
LINE
  8
0
 10
6.90155
 20
6.26912
 11
6.69327
 21
6.42044
  0
LINE
  8
0
 10
6.69327
 20
6.42044
 11
6.5056
 21
6.59666
  0
LINE
  8
0
 10
6.5056
 20
6.59666
 11
6.34151
 21
6.79503
  0
LINE
  8
0
 10
6.34151
 20
6.79503
 11
6.20357
 21
7.01239
  0
LINE
  8
0
 10
6.20357
 20
7.01239
 11
6.09395
 21
7.24533
  0
LINE
  8
0
 10
6.09395
 20
7.24533
 11
6.0144
 21
7.49017
  0
LINE
  8
0
 10
6.0144
 20
7.49017
 11
5.96616
 21
7.74306
  0
LINE
  8
0
 10
5.96616
 20
7.74306
 11
5.95
 21
8
  0
LINE
  8
0
 10
5.95
 20
8
 11
5.96616
 21
8.25693
  0
LINE
  8
0
 10
5.96616
 20
8.25693
 11
6.0144
 21
8.50981
  0
LINE
  8
0
 10
6.0144
 20
8.50981
 11
6.09395
 21
8.75465
  0
LINE
  8
0
 10
6.09395
 20
8.75465
 11
6.20357
 21
8.98759
  0
LINE
  8
0
 10
6.20357
 20
8.98759
 11
6.34151
 21
9.20496
  0
LINE
  8
0
 10
6.34151
 20
9.20496
 11
6.5056
 21
9.40332
  0
LINE
  8
0
 10
6.5056
 20
9.40332
 11
6.69327
 21
9.57954
  0
LINE
  8
0
 10
6.69327
 20
9.57954
 11
6.90155
 21
9.73087
  0
LINE
  8
0
 10
6.90155
 20
9.73087
 11
7.12715
 21
9.85489
  0
LINE
  8
0
 10
7.12715
 20
9.85489
 11
7.3665
 21
9.94966
  0
LINE
  8
0
 10
7.3665
 20
9.94966
 11
7.61586
 21
10.0137
  0
LINE
  8
0
 10
7.61586
 20
10.0137
 11
7.87128
 21
10.0459
  0
LINE
  8
0
 10
7.87128
 20
10.0459
 11
8.12871
 21
10.0459
  0
LINE
  8
0
 10
8.12871
 20
10.0459
 11
8.38412
 21
10.0137
  0
LINE
  8
0
 10
8.38412
 20
10.0137
 11
8.63348
 21
9.94966
  0
LINE
  8
0
 10
8.63348
 20
9.94966
 11
8.87283
 21
9.85489
  0
LINE
  8
0
 10
8.87283
 20
9.85489
 11
9.09843
 21
9.73087
  0
LINE
  8
0
 10
9.09843
 20
9.73087
 11
9.30672
 21
9.57954
  0
LINE
  8
0
 10
9.30672
 20
9.57954
 11
9.49438
 21
9.40332
  0
LINE
  8
0
 10
9.49438
 20
9.40332
 11
9.65848
 21
9.20496
  0
LINE
  8
0
 10
9.65848
 20
9.20496
 11
9.79642
 21
8.98759
  0
LINE
  8
0
 10
9.79642
 20
8.98759
 11
9.90604
 21
8.75465
  0
LINE
  8
0
 10
9.90604
 20
8.75465
 11
9.98558
 21
8.50981
  0
LINE
  8
0
 10
9.98558
 20
8.50981
 11
10.0338
 21
8.25693
  0
LINE
  8
0
 10
10.0338
 20
8.25693
 11
10.05
 21
8
  0
LINE
  8
0
 10
10.05
 20
8
 11
10.0338
 21
7.74306
  0
LINE
  8
0
 10
10.0338
 20
7.74306
 11
9.98558
 21
7.49017
  0
LINE
  8
0
 10
9.98558
 20
7.49017
 11
9.90604
 21
7.24533
  0
LINE
  8
0
 10
9.90604
 20
7.24533
 11
9.79642
 21
7.01239
  0
LINE
  8
0
 10
9.79642
 20
7.01239
 11
9.65848
 21
6.79503
  0
LINE
  8
0
 10
9.65848
 20
6.79503
 11
9.49438
 21
6.59666
  0
LINE
  8
0
 10
9.49438
 20
6.59666
 11
9.30672
 21
6.42044
  0
LINE
  8
0
 10
9.30672
 20
6.42044
 11
9.09843
 21
6.26912
  0
LINE
  8
0
 10
9.09843
 20
6.26912
 11
8.87283
 21
6.1451
  0
LINE
  8
0
 10
8.87283
 20
6.1451
 11
8.63348
 21
6.05032
  0
LINE
  8
0
 10
8.63348
 20
6.05032
 11
8.38412
 21
5.9863
  0
LINE
  8
0
 10
8.38412
 20
5.9863
 11
8.12871
 21
5.95404
  0
LINE
  8
0
 10
8.12871
 20
5.95404
 11
7.87128
 21
5.95404
  0
LINE
  8
0
 10
-0.31395
 20
-4.99013
 11
-0.936905
 21
-4.91142
  0
LINE
  8
0
 10
-0.936905
 20
-4.91142
 11
-1.54507
 21
-4.75528
  0
LINE
  8
0
 10
-1.54507
 20
-4.75528
 11
-2.12889
 21
-4.52412
  0
LINE
  8
0
 10
-2.12889
 20
-4.52412
 11
-2.67912
 21
-4.22163
  0
LINE
  8
0
 10
-2.67912
 20
-4.22163
 11
-3.18712
 21
-3.85255
  0
LINE
  8
0
 10
-3.18712
 20
-3.85255
 11
-3.64484
 21
-3.42273
  0
LINE
  8
0
 10
-3.64484
 20
-3.42273
 11
-4.04507
 21
-2.93892
  0
LINE
  8
0
 10
-4.04507
 20
-2.93892
 11
-4.38153
 21
-2.40877
  0
LINE
  8
0
 10
-4.38153
 20
-2.40877
 11
-4.64888
 21
-1.84062
  0
LINE
  8
0
 10
-4.64888
 20
-1.84062
 11
-4.84291
 21
-1.24344
  0
LINE
  8
0
 10
-4.84291
 20
-1.24344
 11
-4.96057
 21
-0.626663
  0
LINE
  8
0
 10
-4.96057
 20
-0.626663
 11
-5
 21
0
  0
LINE
  8
0
 10
-5
 20
0
 11
-4.96057
 21
0.626663
  0
LINE
  8
0
 10
-4.96057
 20
0.626663
 11
-4.84291
 21
1.24344
  0
LINE
  8
0
 10
-4.84291
 20
1.24344
 11
-4.64888
 21
1.84062
  0
LINE
  8
0
 10
-4.64888
 20
1.84062
 11
-4.38153
 21
2.40877
  0
LINE
  8
0
 10
-4.38153
 20
2.40877
 11
-4.04507
 21
2.93892
  0
LINE
  8
0
 10
-4.04507
 20
2.93892
 11
-3.64484
 21
3.42273
  0
LINE
  8
0
 10
-3.64484
 20
3.42273
 11
-3.18712
 21
3.85255
  0
LINE
  8
0
 10
-3.18712
 20
3.85255
 11
-2.67912
 21
4.22163
  0
LINE
  8
0
 10
-2.67912
 20
4.22163
 11
-2.12889
 21
4.52412
  0
LINE
  8
0
 10
-2.12889
 20
4.52412
 11
-1.54507
 21
4.75528
  0
LINE
  8
0
 10
-1.54507
 20
4.75528
 11
-0.936905
 21
4.91142
  0
LINE
  8
0
 10
-0.936905
 20
4.91142
 11
-0.31395
 21
4.99013
  0
LINE
  8
0
 10
-0.31395
 20
4.99013
 11
0.31395
 21
4.99013
  0
LINE
  8
0
 10
0.31395
 20
4.99013
 11
0.936905
 21
4.91142
  0
LINE
  8
0
 10
0.936905
 20
4.91142
 11
1.54507
 21
4.75528
  0
LINE
  8
0
 10
1.54507
 20
4.75528
 11
2.12889
 21
4.52412
  0
LINE
  8
0
 10
2.12889
 20
4.52412
 11
2.67912
 21
4.22163
  0
LINE
  8
0
 10
2.67912
 20
4.22163
 11
3.18712
 21
3.85255
  0
LINE
  8
0
 10
3.18712
 20
3.85255
 11
3.64484
 21
3.42273
  0
LINE
  8
0
 10
3.64484
 20
3.42273
 11
4.04507
 21
2.93892
  0
LINE
  8
0
 10
4.04507
 20
2.93892
 11
4.38153
 21
2.40877
  0
LINE
  8
0
 10
4.38153
 20
2.40877
 11
4.64888
 21
1.84062
  0
LINE
  8
0
 10
4.64888
 20
1.84062
 11
4.84291
 21
1.24344
  0
LINE
  8
0
 10
4.84291
 20
1.24344
 11
4.96057
 21
0.626663
  0
LINE
  8
0
 10
4.96057
 20
0.626663
 11
5
 21
0
  0
LINE
  8
0
 10
5
 20
0
 11
4.96057
 21
-0.626663
  0
LINE
  8
0
 10
4.96057
 20
-0.626663
 11
4.84291
 21
-1.24344
  0
LINE
  8
0
 10
4.84291
 20
-1.24344
 11
4.64888
 21
-1.84062
  0
LINE
  8
0
 10
4.64888
 20
-1.84062
 11
4.38153
 21
-2.40877
  0
LINE
  8
0
 10
4.38153
 20
-2.40877
 11
4.04507
 21
-2.93892
  0
LINE
  8
0
 10
4.04507
 20
-2.93892
 11
3.64484
 21
-3.42273
  0
LINE
  8
0
 10
3.64484
 20
-3.42273
 11
3.18712
 21
-3.85255
  0
LINE
  8
0
 10
3.18712
 20
-3.85255
 11
2.67912
 21
-4.22163
  0
LINE
  8
0
 10
2.67912
 20
-4.22163
 11
2.12889
 21
-4.52412
  0
LINE
  8
0
 10
2.12889
 20
-4.52412
 11
1.54507
 21
-4.75528
  0
LINE
  8
0
 10
1.54507
 20
-4.75528
 11
0.936905
 21
-4.91142
  0
LINE
  8
0
 10
0.936905
 20
-4.91142
 11
0.31395
 21
-4.99013
  0
LINE
  8
0
 10
0.31395
 20
-4.99013
 11
-0.31395
 21
-4.99013
  0
LINE
  8
0
 10
10.993
 20
-2.02475
 11
10.7418
 21
-1.9686
  0
LINE
  8
0
 10
10.7418
 20
-1.9686
 11
10.4995
 21
-1.88139
  0
LINE
  8
0
 10
10.4995
 20
-1.88139
 11
10.2702
 21
-1.76451
  0
LINE
  8
0
 10
10.2702
 20
-1.76451
 11
10.0572
 21
-1.61981
  0
LINE
  8
0
 10
10.0572
 20
-1.61981
 11
9.86414
 21
-1.44955
  0
LINE
  8
0
 10
9.86414
 20
-1.44955
 11
9.69388
 21
-1.25645
  0
LINE
  8
0
 10
9.69388
 20
-1.25645
 11
9.54918
 21
-1.04353
  0
LINE
  8
0
 10
9.54918
 20
-1.04353
 11
9.4323
 21
-0.814148
  0
LINE
  8
0
 10
9.4323
 20
-0.814148
 11
9.34509
 21
-0.57193
  0
LINE
  8
0
 10
9.34509
 20
-0.57193
 11
9.28894
 21
-0.320679
  0
LINE
  8
0
 10
9.28894
 20
-0.320679
 11
9.26471
 21
-0.0643768
  0
LINE
  8
0
 10
9.26471
 20
-0.0643768
 11
9.2728
 21
0.192917
  0
LINE
  8
0
 10
9.2728
 20
0.192917
 11
9.31306
 21
0.447189
  0
LINE
  8
0
 10
9.31306
 20
0.447189
 11
9.3849
 21
0.694412
  0
LINE
  8
0
 10
9.3849
 20
0.694412
 11
9.48714
 21
0.930679
  0
LINE
  8
0
 10
9.48714
 20
0.930679
 11
9.61818
 21
1.15227
  0
LINE
  8
0
 10
9.61818
 20
1.15227
 11
9.77597
 21
1.35568
  0
LINE
  8
0
 10
9.77597
 20
1.35568
 11
9.95801
 21
1.53772
  0
LINE
  8
0
 10
9.95801
 20
1.53772
 11
10.1614
 21
1.69551
  0
LINE
  8
0
 10
10.1614
 20
1.69551
 11
10.383
 21
1.82655
  0
LINE
  8
0
 10
10.383
 20
1.82655
 11
10.6193
 21
1.9288
  0
LINE
  8
0
 10
10.6193
 20
1.9288
 11
10.8665
 21
2.00063
  0
LINE
  8
0
 10
10.8665
 20
2.00063
 11
11.1208
 21
2.04089
  0
LINE
  8
0
 10
11.1208
 20
2.04089
 11
11.3781
 21
2.04898
  0
LINE
  8
0
 10
11.3781
 20
2.04898
 11
11.6344
 21
2.02475
  0
LINE
  8
0
 10
11.6344
 20
2.02475
 11
11.8856
 21
1.9686
  0
LINE
  8
0
 10
11.8856
 20
1.9686
 11
12.1279
 21
1.88139
  0
LINE
  8
0
 10
12.1279
 20
1.88139
 11
12.3572
 21
1.76451
  0
LINE
  8
0
 10
12.3572
 20
1.76451
 11
12.5702
 21
1.61981
  0
LINE
  8
0
 10
12.5702
 20
1.61981
 11
12.7633
 21
1.44955
  0
LINE
  8
0
 10
12.7633
 20
1.44955
 11
12.9335
 21
1.25645
  0
LINE
  8
0
 10
12.9335
 20
1.25645
 11
13.0782
 21
1.04353
  0
LINE
  8
0
 10
13.0782
 20
1.04353
 11
13.1951
 21
0.814148
  0
LINE
  8
0
 10
13.1951
 20
0.814148
 11
13.2823
 21
0.57193
  0
LINE
  8
0
 10
13.2823
 20
0.57193
 11
13.3385
 21
0.320679
  0
LINE
  8
0
 10
13.3385
 20
0.320679
 11
13.3627
 21
0.0643768
  0
LINE
  8
0
 10
13.3627
 20
0.0643768
 11
13.3546
 21
-0.192917
  0
LINE
  8
0
 10
13.3546
 20
-0.192917
 11
13.3143
 21
-0.447189
  0
LINE
  8
0
 10
13.3143
 20
-0.447189
 11
13.2425
 21
-0.694412
  0
LINE
  8
0
 10
13.2425
 20
-0.694412
 11
13.1403
 21
-0.930679
  0
LINE
  8
0
 10
13.1403
 20
-0.930679
 11
13.0092
 21
-1.15227
  0
LINE
  8
0
 10
13.0092
 20
-1.15227
 11
12.8514
 21
-1.35568
  0
LINE
  8
0
 10
12.8514
 20
-1.35568
 11
12.6694
 21
-1.53772
  0
LINE
  8
0
 10
12.6694
 20
-1.53772
 11
12.466
 21
-1.69551
  0
LINE
  8
0
 10
12.466
 20
-1.69551
 11
12.2444
 21
-1.82655
  0
LINE
  8
0
 10
12.2444
 20
-1.82655
 11
12.0081
 21
-1.9288
  0
LINE
  8
0
 10
12.0081
 20
-1.9288
 11
11.7609
 21
-2.00063
  0
LINE
  8
0
 10
11.7609
 20
-2.00063
 11
11.5066
 21
-2.04089
  0
LINE
  8
0
 10
11.5066
 20
-2.04089
 11
11.2493
 21
-2.04898
  0
LINE
  8
0
 10
11.2493
 20
-2.04898
 11
10.993
 21
-2.02475
  0
LINE
  8
0
 10
-11.6344
 20
-2.02475
 11
-11.8856
 21
-1.9686
  0
LINE
  8
0
 10
-11.8856
 20
-1.9686
 11
-12.1279
 21
-1.88139
  0
LINE
  8
0
 10
-12.1279
 20
-1.88139
 11
-12.3572
 21
-1.76451
  0
LINE
  8
0
 10
-12.3572
 20
-1.76451
 11
-12.5702
 21
-1.61981
  0
LINE
  8
0
 10
-12.5702
 20
-1.61981
 11
-12.7633
 21
-1.44955
  0
LINE
  8
0
 10
-12.7633
 20
-1.44955
 11
-12.9335
 21
-1.25645
  0
LINE
  8
0
 10
-12.9335
 20
-1.25645
 11
-13.0782
 21
-1.04353
  0
LINE
  8
0
 10
-13.0782
 20
-1.04353
 11
-13.1951
 21
-0.814148
  0
LINE
  8
0
 10
-13.1951
 20
-0.814148
 11
-13.2823
 21
-0.57193
  0
LINE
  8
0
 10
-13.2823
 20
-0.57193
 11
-13.3385
 21
-0.320679
  0
LINE
  8
0
 10
-13.3385
 20
-0.320679
 11
-13.3627
 21
-0.0643768
  0
LINE
  8
0
 10
-13.3627
 20
-0.0643768
 11
-13.3546
 21
0.192917
  0
LINE
  8
0
 10
-13.3546
 20
0.192917
 11
-13.3143
 21
0.447189
  0
LINE
  8
0
 10
-13.3143
 20
0.447189
 11
-13.2425
 21
0.694412
  0
LINE
  8
0
 10
-13.2425
 20
0.694412
 11
-13.1403
 21
0.930679
  0
LINE
  8
0
 10
-13.1403
 20
0.930679
 11
-13.0092
 21
1.15227
  0
LINE
  8
0
 10
-13.0092
 20
1.15227
 11
-12.8514
 21
1.35568
  0
LINE
  8
0
 10
-12.8514
 20
1.35568
 11
-12.6694
 21
1.53772
  0
LINE
  8
0
 10
-12.6694
 20
1.53772
 11
-12.466
 21
1.69551
  0
LINE
  8
0
 10
-12.466
 20
1.69551
 11
-12.2444
 21
1.82655
  0
LINE
  8
0
 10
-12.2444
 20
1.82655
 11
-12.0081
 21
1.9288
  0
LINE
  8
0
 10
-12.0081
 20
1.9288
 11
-11.7609
 21
2.00063
  0
LINE
  8
0
 10
-11.7609
 20
2.00063
 11
-11.5066
 21
2.04089
  0
LINE
  8
0
 10
-11.5066
 20
2.04089
 11
-11.2493
 21
2.04898
  0
LINE
  8
0
 10
-11.2493
 20
2.04898
 11
-10.993
 21
2.02475
  0
LINE
  8
0
 10
-10.993
 20
2.02475
 11
-10.7418
 21
1.9686
  0
LINE
  8
0
 10
-10.7418
 20
1.9686
 11
-10.4995
 21
1.88139
  0
LINE
  8
0
 10
-10.4995
 20
1.88139
 11
-10.2702
 21
1.76451
  0
LINE
  8
0
 10
-10.2702
 20
1.76451
 11
-10.0572
 21
1.61981
  0
LINE
  8
0
 10
-10.0572
 20
1.61981
 11
-9.86414
 21
1.44955
  0
LINE
  8
0
 10
-9.86414
 20
1.44955
 11
-9.69388
 21
1.25645
  0
LINE
  8
0
 10
-9.69388
 20
1.25645
 11
-9.54918
 21
1.04353
  0
LINE
  8
0
 10
-9.54918
 20
1.04353
 11
-9.4323
 21
0.814148
  0
LINE
  8
0
 10
-9.4323
 20
0.814148
 11
-9.34509
 21
0.57193
  0
LINE
  8
0
 10
-9.34509
 20
0.57193
 11
-9.28894
 21
0.320679
  0
LINE
  8
0
 10
-9.28894
 20
0.320679
 11
-9.26471
 21
0.0643768
  0
LINE
  8
0
 10
-9.26471
 20
0.0643768
 11
-9.2728
 21
-0.192917
  0
LINE
  8
0
 10
-9.2728
 20
-0.192917
 11
-9.31306
 21
-0.447189
  0
LINE
  8
0
 10
-9.31306
 20
-0.447189
 11
-9.3849
 21
-0.694412
  0
LINE
  8
0
 10
-9.3849
 20
-0.694412
 11
-9.48714
 21
-0.930679
  0
LINE
  8
0
 10
-9.48714
 20
-0.930679
 11
-9.61818
 21
-1.15227
  0
LINE
  8
0
 10
-9.61818
 20
-1.15227
 11
-9.77597
 21
-1.35568
  0
LINE
  8
0
 10
-9.77597
 20
-1.35568
 11
-9.95801
 21
-1.53772
  0
LINE
  8
0
 10
-9.95801
 20
-1.53772
 11
-10.1614
 21
-1.69551
  0
LINE
  8
0
 10
-10.1614
 20
-1.69551
 11
-10.383
 21
-1.82655
  0
LINE
  8
0
 10
-10.383
 20
-1.82655
 11
-10.6193
 21
-1.9288
  0
LINE
  8
0
 10
-10.6193
 20
-1.9288
 11
-10.8665
 21
-2.00063
  0
LINE
  8
0
 10
-10.8665
 20
-2.00063
 11
-11.1208
 21
-2.04089
  0
LINE
  8
0
 10
-11.1208
 20
-2.04089
 11
-11.3781
 21
-2.04898
  0
LINE
  8
0
 10
-11.3781
 20
-2.04898
 11
-11.6344
 21
-2.02475
  0
LINE
  8
0
 10
7.87128
 20
-10.0459
 11
7.61586
 21
-10.0137
  0
LINE
  8
0
 10
7.61586
 20
-10.0137
 11
7.3665
 21
-9.94966
  0
LINE
  8
0
 10
7.3665
 20
-9.94966
 11
7.12715
 21
-9.85489
  0
LINE
  8
0
 10
7.12715
 20
-9.85489
 11
6.90155
 21
-9.73087
  0
LINE
  8
0
 10
6.90155
 20
-9.73087
 11
6.69327
 21
-9.57954
  0
LINE
  8
0
 10
6.69327
 20
-9.57954
 11
6.5056
 21
-9.40332
  0
LINE
  8
0
 10
6.5056
 20
-9.40332
 11
6.34151
 21
-9.20496
  0
LINE
  8
0
 10
6.34151
 20
-9.20496
 11
6.20357
 21
-8.98759
  0
LINE
  8
0
 10
6.20357
 20
-8.98759
 11
6.09395
 21
-8.75465
  0
LINE
  8
0
 10
6.09395
 20
-8.75465
 11
6.0144
 21
-8.50981
  0
LINE
  8
0
 10
6.0144
 20
-8.50981
 11
5.96616
 21
-8.25693
  0
LINE
  8
0
 10
5.96616
 20
-8.25693
 11
5.95
 21
-8
  0
LINE
  8
0
 10
5.95
 20
-8
 11
5.96616
 21
-7.74306
  0
LINE
  8
0
 10
5.96616
 20
-7.74306
 11
6.0144
 21
-7.49017
  0
LINE
  8
0
 10
6.0144
 20
-7.49017
 11
6.09395
 21
-7.24533
  0
LINE
  8
0
 10
6.09395
 20
-7.24533
 11
6.20357
 21
-7.01239
  0
LINE
  8
0
 10
6.20357
 20
-7.01239
 11
6.34151
 21
-6.79503
  0
LINE
  8
0
 10
6.34151
 20
-6.79503
 11
6.5056
 21
-6.59666
  0
LINE
  8
0
 10
6.5056
 20
-6.59666
 11
6.69327
 21
-6.42044
  0
LINE
  8
0
 10
6.69327
 20
-6.42044
 11
6.90155
 21
-6.26912
  0
LINE
  8
0
 10
6.90155
 20
-6.26912
 11
7.12715
 21
-6.1451
  0
LINE
  8
0
 10
7.12715
 20
-6.1451
 11
7.3665
 21
-6.05032
  0
LINE
  8
0
 10
7.3665
 20
-6.05032
 11
7.61586
 21
-5.9863
  0
LINE
  8
0
 10
7.61586
 20
-5.9863
 11
7.87128
 21
-5.95404
  0
LINE
  8
0
 10
7.87128
 20
-5.95404
 11
8.12871
 21
-5.95404
  0
LINE
  8
0
 10
8.12871
 20
-5.95404
 11
8.38412
 21
-5.9863
  0
LINE
  8
0
 10
8.38412
 20
-5.9863
 11
8.63348
 21
-6.05032
  0
LINE
  8
0
 10
8.63348
 20
-6.05032
 11
8.87283
 21
-6.1451
  0
LINE
  8
0
 10
8.87283
 20
-6.1451
 11
9.09843
 21
-6.26912
  0
LINE
  8
0
 10
9.09843
 20
-6.26912
 11
9.30672
 21
-6.42044
  0
LINE
  8
0
 10
9.30672
 20
-6.42044
 11
9.49438
 21
-6.59666
  0
LINE
  8
0
 10
9.49438
 20
-6.59666
 11
9.65848
 21
-6.79503
  0
LINE
  8
0
 10
9.65848
 20
-6.79503
 11
9.79642
 21
-7.01239
  0
LINE
  8
0
 10
9.79642
 20
-7.01239
 11
9.90604
 21
-7.24533
  0
LINE
  8
0
 10
9.90604
 20
-7.24533
 11
9.98558
 21
-7.49017
  0
LINE
  8
0
 10
9.98558
 20
-7.49017
 11
10.0338
 21
-7.74306
  0
LINE
  8
0
 10
10.0338
 20
-7.74306
 11
10.05
 21
-8
  0
LINE
  8
0
 10
10.05
 20
-8
 11
10.0338
 21
-8.25693
  0
LINE
  8
0
 10
10.0338
 20
-8.25693
 11
9.98558
 21
-8.50981
  0
LINE
  8
0
 10
9.98558
 20
-8.50981
 11
9.90604
 21
-8.75465
  0
LINE
  8
0
 10
9.90604
 20
-8.75465
 11
9.79642
 21
-8.98759
  0
LINE
  8
0
 10
9.79642
 20
-8.98759
 11
9.65848
 21
-9.20496
  0
LINE
  8
0
 10
9.65848
 20
-9.20496
 11
9.49438
 21
-9.40332
  0
LINE
  8
0
 10
9.49438
 20
-9.40332
 11
9.30672
 21
-9.57954
  0
LINE
  8
0
 10
9.30672
 20
-9.57954
 11
9.09843
 21
-9.73087
  0
LINE
  8
0
 10
9.09843
 20
-9.73087
 11
8.87283
 21
-9.85489
  0
LINE
  8
0
 10
8.87283
 20
-9.85489
 11
8.63348
 21
-9.94966
  0
LINE
  8
0
 10
8.63348
 20
-9.94966
 11
8.38412
 21
-10.0137
  0
LINE
  8
0
 10
8.38412
 20
-10.0137
 11
8.12871
 21
-10.0459
  0
LINE
  8
0
 10
8.12871
 20
-10.0459
 11
7.87128
 21
-10.0459
  0
LINE
  8
0
 10
-8.12871
 20
-10.0459
 11
-8.38412
 21
-10.0137
  0
LINE
  8
0
 10
-8.38412
 20
-10.0137
 11
-8.63348
 21
-9.94966
  0
LINE
  8
0
 10
-8.63348
 20
-9.94966
 11
-8.87283
 21
-9.85489
  0
LINE
  8
0
 10
-8.87283
 20
-9.85489
 11
-9.09843
 21
-9.73087
  0
LINE
  8
0
 10
-9.09843
 20
-9.73087
 11
-9.30672
 21
-9.57954
  0
LINE
  8
0
 10
-9.30672
 20
-9.57954
 11
-9.49438
 21
-9.40332
  0
LINE
  8
0
 10
-9.49438
 20
-9.40332
 11
-9.65848
 21
-9.20496
  0
LINE
  8
0
 10
-9.65848
 20
-9.20496
 11
-9.79642
 21
-8.98759
  0
LINE
  8
0
 10
-9.79642
 20
-8.98759
 11
-9.90604
 21
-8.75465
  0
LINE
  8
0
 10
-9.90604
 20
-8.75465
 11
-9.98558
 21
-8.50981
  0
LINE
  8
0
 10
-9.98558
 20
-8.50981
 11
-10.0338
 21
-8.25693
  0
LINE
  8
0
 10
-10.0338
 20
-8.25693
 11
-10.05
 21
-8
  0
LINE
  8
0
 10
-10.05
 20
-8
 11
-10.0338
 21
-7.74306
  0
LINE
  8
0
 10
-10.0338
 20
-7.74306
 11
-9.98558
 21
-7.49017
  0
LINE
  8
0
 10
-9.98558
 20
-7.49017
 11
-9.90604
 21
-7.24533
  0
LINE
  8
0
 10
-9.90604
 20
-7.24533
 11
-9.79642
 21
-7.01239
  0
LINE
  8
0
 10
-9.79642
 20
-7.01239
 11
-9.65848
 21
-6.79503
  0
LINE
  8
0
 10
-9.65848
 20
-6.79503
 11
-9.49438
 21
-6.59666
  0
LINE
  8
0
 10
-9.49438
 20
-6.59666
 11
-9.30672
 21
-6.42044
  0
LINE
  8
0
 10
-9.30672
 20
-6.42044
 11
-9.09843
 21
-6.26912
  0
LINE
  8
0
 10
-9.09843
 20
-6.26912
 11
-8.87283
 21
-6.1451
  0
LINE
  8
0
 10
-8.87283
 20
-6.1451
 11
-8.63348
 21
-6.05032
  0
LINE
  8
0
 10
-8.63348
 20
-6.05032
 11
-8.38412
 21
-5.9863
  0
LINE
  8
0
 10
-8.38412
 20
-5.9863
 11
-8.12871
 21
-5.95404
  0
LINE
  8
0
 10
-8.12871
 20
-5.95404
 11
-7.87128
 21
-5.95404
  0
LINE
  8
0
 10
-7.87128
 20
-5.95404
 11
-7.61586
 21
-5.9863
  0
LINE
  8
0
 10
-7.61586
 20
-5.9863
 11
-7.3665
 21
-6.05032
  0
LINE
  8
0
 10
-7.3665
 20
-6.05032
 11
-7.12715
 21
-6.1451
  0
LINE
  8
0
 10
-7.12715
 20
-6.1451
 11
-6.90155
 21
-6.26912
  0
LINE
  8
0
 10
-6.90155
 20
-6.26912
 11
-6.69327
 21
-6.42044
  0
LINE
  8
0
 10
-6.69327
 20
-6.42044
 11
-6.5056
 21
-6.59666
  0
LINE
  8
0
 10
-6.5056
 20
-6.59666
 11
-6.34151
 21
-6.79503
  0
LINE
  8
0
 10
-6.34151
 20
-6.79503
 11
-6.20357
 21
-7.01239
  0
LINE
  8
0
 10
-6.20357
 20
-7.01239
 11
-6.09395
 21
-7.24533
  0
LINE
  8
0
 10
-6.09395
 20
-7.24533
 11
-6.0144
 21
-7.49017
  0
LINE
  8
0
 10
-6.0144
 20
-7.49017
 11
-5.96616
 21
-7.74306
  0
LINE
  8
0
 10
-5.96616
 20
-7.74306
 11
-5.95
 21
-8
  0
LINE
  8
0
 10
-5.95
 20
-8
 11
-5.96616
 21
-8.25693
  0
LINE
  8
0
 10
-5.96616
 20
-8.25693
 11
-6.0144
 21
-8.50981
  0
LINE
  8
0
 10
-6.0144
 20
-8.50981
 11
-6.09395
 21
-8.75465
  0
LINE
  8
0
 10
-6.09395
 20
-8.75465
 11
-6.20357
 21
-8.98759
  0
LINE
  8
0
 10
-6.20357
 20
-8.98759
 11
-6.34151
 21
-9.20496
  0
LINE
  8
0
 10
-6.34151
 20
-9.20496
 11
-6.5056
 21
-9.40332
  0
LINE
  8
0
 10
-6.5056
 20
-9.40332
 11
-6.69327
 21
-9.57954
  0
LINE
  8
0
 10
-6.69327
 20
-9.57954
 11
-6.90155
 21
-9.73087
  0
LINE
  8
0
 10
-6.90155
 20
-9.73087
 11
-7.12715
 21
-9.85489
  0
LINE
  8
0
 10
-7.12715
 20
-9.85489
 11
-7.3665
 21
-9.94966
  0
LINE
  8
0
 10
-7.3665
 20
-9.94966
 11
-7.61586
 21
-10.0137
  0
LINE
  8
0
 10
-7.61586
 20
-10.0137
 11
-7.87128
 21
-10.0459
  0
LINE
  8
0
 10
-7.87128
 20
-10.0459
 11
-8.12871
 21
-10.0459
  0
LINE
  8
0
 10
-0.320679
 20
-13.3385
 11
-0.57193
 21
-13.2823
  0
LINE
  8
0
 10
-0.57193
 20
-13.2823
 11
-0.814148
 21
-13.1951
  0
LINE
  8
0
 10
-0.814148
 20
-13.1951
 11
-1.04353
 21
-13.0782
  0
LINE
  8
0
 10
-1.04353
 20
-13.0782
 11
-1.25645
 21
-12.9335
  0
LINE
  8
0
 10
-1.25645
 20
-12.9335
 11
-1.44955
 21
-12.7633
  0
LINE
  8
0
 10
-1.44955
 20
-12.7633
 11
-1.61981
 21
-12.5702
  0
LINE
  8
0
 10
-1.61981
 20
-12.5702
 11
-1.76451
 21
-12.3572
  0
LINE
  8
0
 10
-1.76451
 20
-12.3572
 11
-1.88139
 21
-12.1279
  0
LINE
  8
0
 10
-1.88139
 20
-12.1279
 11
-1.9686
 21
-11.8856
  0
LINE
  8
0
 10
-1.9686
 20
-11.8856
 11
-2.02475
 21
-11.6344
  0
LINE
  8
0
 10
-2.02475
 20
-11.6344
 11
-2.04898
 21
-11.3781
  0
LINE
  8
0
 10
-2.04898
 20
-11.3781
 11
-2.04089
 21
-11.1208
  0
LINE
  8
0
 10
-2.04089
 20
-11.1208
 11
-2.00063
 21
-10.8665
  0
LINE
  8
0
 10
-2.00063
 20
-10.8665
 11
-1.9288
 21
-10.6193
  0
LINE
  8
0
 10
-1.9288
 20
-10.6193
 11
-1.82655
 21
-10.383
  0
LINE
  8
0
 10
-1.82655
 20
-10.383
 11
-1.69551
 21
-10.1614
  0
LINE
  8
0
 10
-1.69551
 20
-10.1614
 11
-1.53772
 21
-9.95801
  0
LINE
  8
0
 10
-1.53772
 20
-9.95801
 11
-1.35568
 21
-9.77597
  0
LINE
  8
0
 10
-1.35568
 20
-9.77597
 11
-1.15227
 21
-9.61818
  0
LINE
  8
0
 10
-1.15227
 20
-9.61818
 11
-0.930679
 21
-9.48714
  0
LINE
  8
0
 10
-0.930679
 20
-9.48714
 11
-0.694412
 21
-9.3849
  0
LINE
  8
0
 10
-0.694412
 20
-9.3849
 11
-0.447189
 21
-9.31306
  0
LINE
  8
0
 10
-0.447189
 20
-9.31306
 11
-0.192917
 21
-9.2728
  0
LINE
  8
0
 10
-0.192917
 20
-9.2728
 11
0.0643768
 21
-9.26471
  0
LINE
  8
0
 10
0.0643768
 20
-9.26471
 11
0.320679
 21
-9.28894
  0
LINE
  8
0
 10
0.320679
 20
-9.28894
 11
0.57193
 21
-9.34509
  0
LINE
  8
0
 10
0.57193
 20
-9.34509
 11
0.814148
 21
-9.4323
  0
LINE
  8
0
 10
0.814148
 20
-9.4323
 11
1.04353
 21
-9.54918
  0
LINE
  8
0
 10
1.04353
 20
-9.54918
 11
1.25645
 21
-9.69388
  0
LINE
  8
0
 10
1.25645
 20
-9.69388
 11
1.44955
 21
-9.86414
  0
LINE
  8
0
 10
1.44955
 20
-9.86414
 11
1.61981
 21
-10.0572
  0
LINE
  8
0
 10
1.61981
 20
-10.0572
 11
1.76451
 21
-10.2702
  0
LINE
  8
0
 10
1.76451
 20
-10.2702
 11
1.88139
 21
-10.4995
  0
LINE
  8
0
 10
1.88139
 20
-10.4995
 11
1.9686
 21
-10.7418
  0
LINE
  8
0
 10
1.9686
 20
-10.7418
 11
2.02475
 21
-10.993
  0
LINE
  8
0
 10
2.02475
 20
-10.993
 11
2.04898
 21
-11.2493
  0
LINE
  8
0
 10
2.04898
 20
-11.2493
 11
2.04089
 21
-11.5066
  0
LINE
  8
0
 10
2.04089
 20
-11.5066
 11
2.00063
 21
-11.7609
  0
LINE
  8
0
 10
2.00063
 20
-11.7609
 11
1.9288
 21
-12.0081
  0
LINE
  8
0
 10
1.9288
 20
-12.0081
 11
1.82655
 21
-12.2444
  0
LINE
  8
0
 10
1.82655
 20
-12.2444
 11
1.69551
 21
-12.466
  0
LINE
  8
0
 10
1.69551
 20
-12.466
 11
1.53772
 21
-12.6694
  0
LINE
  8
0
 10
1.53772
 20
-12.6694
 11
1.35568
 21
-12.8514
  0
LINE
  8
0
 10
1.35568
 20
-12.8514
 11
1.15227
 21
-13.0092
  0
LINE
  8
0
 10
1.15227
 20
-13.0092
 11
0.930679
 21
-13.1403
  0
LINE
  8
0
 10
0.930679
 20
-13.1403
 11
0.694412
 21
-13.2425
  0
LINE
  8
0
 10
0.694412
 20
-13.2425
 11
0.447189
 21
-13.3143
  0
LINE
  8
0
 10
0.447189
 20
-13.3143
 11
0.192917
 21
-13.3546
  0
LINE
  8
0
 10
0.192917
 20
-13.3546
 11
-0.0643768
 21
-13.3627
  0
LINE
  8
0
 10
-0.0643768
 20
-13.3627
 11
-0.320679
 21
-13.3385
  0
LINE
  8
0
 10
22.5027
 20
-15.5469
 11
22.3096
 21
-15.5225
  0
LINE
  8
0
 10
22.3096
 20
-15.5225
 11
22.121
 21
-15.4741
  0
LINE
  8
0
 10
22.121
 20
-15.4741
 11
21.94
 21
-15.4025
  0
LINE
  8
0
 10
21.94
 20
-15.4025
 11
21.7695
 21
-15.3087
  0
LINE
  8
0
 10
21.7695
 20
-15.3087
 11
21.612
 21
-15.1943
  0
LINE
  8
0
 10
21.612
 20
-15.1943
 11
21.4701
 21
-15.061
  0
LINE
  8
0
 10
21.4701
 20
-15.061
 11
21.346
 21
-14.9111
  0
LINE
  8
0
 10
21.346
 20
-14.9111
 11
21.2417
 21
-14.7467
  0
LINE
  8
0
 10
21.2417
 20
-14.7467
 11
21.1588
 21
-14.5706
  0
LINE
  8
0
 10
21.1588
 20
-14.5706
 11
21.0987
 21
-14.3855
  0
LINE
  8
0
 10
21.0987
 20
-14.3855
 11
21.0622
 21
-14.1943
  0
LINE
  8
0
 10
21.0622
 20
-14.1943
 11
21.05
 21
-14
  0
LINE
  8
0
 10
21.05
 20
-14
 11
21.0622
 21
-13.8057
  0
LINE
  8
0
 10
21.0622
 20
-13.8057
 11
21.0987
 21
-13.6145
  0
LINE
  8
0
 10
21.0987
 20
-13.6145
 11
21.1588
 21
-13.4294
  0
LINE
  8
0
 10
21.1588
 20
-13.4294
 11
21.2417
 21
-13.2533
  0
LINE
  8
0
 10
21.2417
 20
-13.2533
 11
21.346
 21
-13.0889
  0
LINE
  8
0
 10
21.346
 20
-13.0889
 11
21.4701
 21
-12.9389
  0
LINE
  8
0
 10
21.4701
 20
-12.9389
 11
21.612
 21
-12.8057
  0
LINE
  8
0
 10
21.612
 20
-12.8057
 11
21.7695
 21
-12.6913
  0
LINE
  8
0
 10
21.7695
 20
-12.6913
 11
21.94
 21
-12.5975
  0
LINE
  8
0
 10
21.94
 20
-12.5975
 11
22.121
 21
-12.5258
  0
LINE
  8
0
 10
22.121
 20
-12.5258
 11
22.3096
 21
-12.4774
  0
LINE
  8
0
 10
22.3096
 20
-12.4774
 11
22.5027
 21
-12.453
  0
LINE
  8
0
 10
22.5027
 20
-12.453
 11
22.6973
 21
-12.453
  0
LINE
  8
0
 10
22.6973
 20
-12.453
 11
22.8904
 21
-12.4774
  0
LINE
  8
0
 10
22.8904
 20
-12.4774
 11
23.079
 21
-12.5258
  0
LINE
  8
0
 10
23.079
 20
-12.5258
 11
23.2599
 21
-12.5975
  0
LINE
  8
0
 10
23.2599
 20
-12.5975
 11
23.4305
 21
-12.6913
  0
LINE
  8
0
 10
23.4305
 20
-12.6913
 11
23.588
 21
-12.8057
  0
LINE
  8
0
 10
23.588
 20
-12.8057
 11
23.7299
 21
-12.9389
  0
LINE
  8
0
 10
23.7299
 20
-12.9389
 11
23.854
 21
-13.0889
  0
LINE
  8
0
 10
23.854
 20
-13.0889
 11
23.9583
 21
-13.2533
  0
LINE
  8
0
 10
23.9583
 20
-13.2533
 11
24.0412
 21
-13.4294
  0
LINE
  8
0
 10
24.0412
 20
-13.4294
 11
24.1013
 21
-13.6145
  0
LINE
  8
0
 10
24.1013
 20
-13.6145
 11
24.1378
 21
-13.8057
  0
LINE
  8
0
 10
24.1378
 20
-13.8057
 11
24.15
 21
-14
  0
LINE
  8
0
 10
24.15
 20
-14
 11
24.1378
 21
-14.1943
  0
LINE
  8
0
 10
24.1378
 20
-14.1943
 11
24.1013
 21
-14.3855
  0
LINE
  8
0
 10
24.1013
 20
-14.3855
 11
24.0412
 21
-14.5706
  0
LINE
  8
0
 10
24.0412
 20
-14.5706
 11
23.9583
 21
-14.7467
  0
LINE
  8
0
 10
23.9583
 20
-14.7467
 11
23.854
 21
-14.9111
  0
LINE
  8
0
 10
23.854
 20
-14.9111
 11
23.7299
 21
-15.061
  0
LINE
  8
0
 10
23.7299
 20
-15.061
 11
23.588
 21
-15.1943
  0
LINE
  8
0
 10
23.588
 20
-15.1943
 11
23.4305
 21
-15.3087
  0
LINE
  8
0
 10
23.4305
 20
-15.3087
 11
23.2599
 21
-15.4025
  0
LINE
  8
0
 10
23.2599
 20
-15.4025
 11
23.079
 21
-15.4741
  0
LINE
  8
0
 10
23.079
 20
-15.4741
 11
22.8904
 21
-15.5225
  0
LINE
  8
0
 10
22.8904
 20
-15.5225
 11
22.6973
 21
-15.5469
  0
LINE
  8
0
 10
22.6973
 20
-15.5469
 11
22.5027
 21
-15.5469
  0
LINE
  8
0
 10
-22.6973
 20
-15.5469
 11
-22.8904
 21
-15.5225
  0
LINE
  8
0
 10
-22.8904
 20
-15.5225
 11
-23.079
 21
-15.4741
  0
LINE
  8
0
 10
-23.079
 20
-15.4741
 11
-23.2599
 21
-15.4025
  0
LINE
  8
0
 10
-23.2599
 20
-15.4025
 11
-23.4305
 21
-15.3087
  0
LINE
  8
0
 10
-23.4305
 20
-15.3087
 11
-23.588
 21
-15.1943
  0
LINE
  8
0
 10
-23.588
 20
-15.1943
 11
-23.7299
 21
-15.061
  0
LINE
  8
0
 10
-23.7299
 20
-15.061
 11
-23.854
 21
-14.9111
  0
LINE
  8
0
 10
-23.854
 20
-14.9111
 11
-23.9583
 21
-14.7467
  0
LINE
  8
0
 10
-23.9583
 20
-14.7467
 11
-24.0412
 21
-14.5706
  0
LINE
  8
0
 10
-24.0412
 20
-14.5706
 11
-24.1013
 21
-14.3855
  0
LINE
  8
0
 10
-24.1013
 20
-14.3855
 11
-24.1378
 21
-14.1943
  0
LINE
  8
0
 10
-24.1378
 20
-14.1943
 11
-24.15
 21
-14
  0
LINE
  8
0
 10
-24.15
 20
-14
 11
-24.1378
 21
-13.8057
  0
LINE
  8
0
 10
-24.1378
 20
-13.8057
 11
-24.1013
 21
-13.6145
  0
LINE
  8
0
 10
-24.1013
 20
-13.6145
 11
-24.0412
 21
-13.4294
  0
LINE
  8
0
 10
-24.0412
 20
-13.4294
 11
-23.9583
 21
-13.2533
  0
LINE
  8
0
 10
-23.9583
 20
-13.2533
 11
-23.854
 21
-13.0889
  0
LINE
  8
0
 10
-23.854
 20
-13.0889
 11
-23.7299
 21
-12.9389
  0
LINE
  8
0
 10
-23.7299
 20
-12.9389
 11
-23.588
 21
-12.8057
  0
LINE
  8
0
 10
-23.588
 20
-12.8057
 11
-23.4305
 21
-12.6913
  0
LINE
  8
0
 10
-23.4305
 20
-12.6913
 11
-23.2599
 21
-12.5975
  0
LINE
  8
0
 10
-23.2599
 20
-12.5975
 11
-23.079
 21
-12.5258
  0
LINE
  8
0
 10
-23.079
 20
-12.5258
 11
-22.8904
 21
-12.4774
  0
LINE
  8
0
 10
-22.8904
 20
-12.4774
 11
-22.6973
 21
-12.453
  0
LINE
  8
0
 10
-22.6973
 20
-12.453
 11
-22.5027
 21
-12.453
  0
LINE
  8
0
 10
-22.5027
 20
-12.453
 11
-22.3096
 21
-12.4774
  0
LINE
  8
0
 10
-22.3096
 20
-12.4774
 11
-22.121
 21
-12.5258
  0
LINE
  8
0
 10
-22.121
 20
-12.5258
 11
-21.94
 21
-12.5975
  0
LINE
  8
0
 10
-21.94
 20
-12.5975
 11
-21.7695
 21
-12.6913
  0
LINE
  8
0
 10
-21.7695
 20
-12.6913
 11
-21.612
 21
-12.8057
  0
LINE
  8
0
 10
-21.612
 20
-12.8057
 11
-21.4701
 21
-12.9389
  0
LINE
  8
0
 10
-21.4701
 20
-12.9389
 11
-21.346
 21
-13.0889
  0
LINE
  8
0
 10
-21.346
 20
-13.0889
 11
-21.2417
 21
-13.2533
  0
LINE
  8
0
 10
-21.2417
 20
-13.2533
 11
-21.1588
 21
-13.4294
  0
LINE
  8
0
 10
-21.1588
 20
-13.4294
 11
-21.0987
 21
-13.6145
  0
LINE
  8
0
 10
-21.0987
 20
-13.6145
 11
-21.0622
 21
-13.8057
  0
LINE
  8
0
 10
-21.0622
 20
-13.8057
 11
-21.05
 21
-14
  0
LINE
  8
0
 10
-21.05
 20
-14
 11
-21.0622
 21
-14.1943
  0
LINE
  8
0
 10
-21.0622
 20
-14.1943
 11
-21.0987
 21
-14.3855
  0
LINE
  8
0
 10
-21.0987
 20
-14.3855
 11
-21.1588
 21
-14.5706
  0
LINE
  8
0
 10
-21.1588
 20
-14.5706
 11
-21.2417
 21
-14.7467
  0
LINE
  8
0
 10
-21.2417
 20
-14.7467
 11
-21.346
 21
-14.9111
  0
LINE
  8
0
 10
-21.346
 20
-14.9111
 11
-21.4701
 21
-15.061
  0
LINE
  8
0
 10
-21.4701
 20
-15.061
 11
-21.612
 21
-15.1943
  0
LINE
  8
0
 10
-21.612
 20
-15.1943
 11
-21.7695
 21
-15.3087
  0
LINE
  8
0
 10
-21.7695
 20
-15.3087
 11
-21.94
 21
-15.4025
  0
LINE
  8
0
 10
-21.94
 20
-15.4025
 11
-22.121
 21
-15.4741
  0
LINE
  8
0
 10
-22.121
 20
-15.4741
 11
-22.3096
 21
-15.5225
  0
LINE
  8
0
 10
-22.3096
 20
-15.5225
 11
-22.5027
 21
-15.5469
  0
LINE
  8
0
 10
-22.5027
 20
-15.5469
 11
-22.6973
 21
-15.5469
  0
LINE
  8
0
 10
16.2027
 20
-22.5469
 11
16.0096
 21
-22.5225
  0
LINE
  8
0
 10
16.0096
 20
-22.5225
 11
15.821
 21
-22.4741
  0
LINE
  8
0
 10
15.821
 20
-22.4741
 11
15.64
 21
-22.4025
  0
LINE
  8
0
 10
15.64
 20
-22.4025
 11
15.4695
 21
-22.3087
  0
LINE
  8
0
 10
15.4695
 20
-22.3087
 11
15.312
 21
-22.1943
  0
LINE
  8
0
 10
15.312
 20
-22.1943
 11
15.1701
 21
-22.061
  0
LINE
  8
0
 10
15.1701
 20
-22.061
 11
15.046
 21
-21.9111
  0
LINE
  8
0
 10
15.046
 20
-21.9111
 11
14.9417
 21
-21.7467
  0
LINE
  8
0
 10
14.9417
 20
-21.7467
 11
14.8588
 21
-21.5706
  0
LINE
  8
0
 10
14.8588
 20
-21.5706
 11
14.7987
 21
-21.3855
  0
LINE
  8
0
 10
14.7987
 20
-21.3855
 11
14.7622
 21
-21.1943
  0
LINE
  8
0
 10
14.7622
 20
-21.1943
 11
14.75
 21
-21
  0
LINE
  8
0
 10
14.75
 20
-21
 11
14.7622
 21
-20.8057
  0
LINE
  8
0
 10
14.7622
 20
-20.8057
 11
14.7987
 21
-20.6145
  0
LINE
  8
0
 10
14.7987
 20
-20.6145
 11
14.8588
 21
-20.4294
  0
LINE
  8
0
 10
14.8588
 20
-20.4294
 11
14.9417
 21
-20.2533
  0
LINE
  8
0
 10
14.9417
 20
-20.2533
 11
15.046
 21
-20.0889
  0
LINE
  8
0
 10
15.046
 20
-20.0889
 11
15.1701
 21
-19.9389
  0
LINE
  8
0
 10
15.1701
 20
-19.9389
 11
15.312
 21
-19.8057
  0
LINE
  8
0
 10
15.312
 20
-19.8057
 11
15.4695
 21
-19.6913
  0
LINE
  8
0
 10
15.4695
 20
-19.6913
 11
15.64
 21
-19.5975
  0
LINE
  8
0
 10
15.64
 20
-19.5975
 11
15.821
 21
-19.5258
  0
LINE
  8
0
 10
15.821
 20
-19.5258
 11
16.0096
 21
-19.4774
  0
LINE
  8
0
 10
16.0096
 20
-19.4774
 11
16.2027
 21
-19.453
  0
LINE
  8
0
 10
16.2027
 20
-19.453
 11
16.3973
 21
-19.453
  0
LINE
  8
0
 10
16.3973
 20
-19.453
 11
16.5904
 21
-19.4774
  0
LINE
  8
0
 10
16.5904
 20
-19.4774
 11
16.779
 21
-19.5258
  0
LINE
  8
0
 10
16.779
 20
-19.5258
 11
16.9599
 21
-19.5975
  0
LINE
  8
0
 10
16.9599
 20
-19.5975
 11
17.1305
 21
-19.6913
  0
LINE
  8
0
 10
17.1305
 20
-19.6913
 11
17.288
 21
-19.8057
  0
LINE
  8
0
 10
17.288
 20
-19.8057
 11
17.4299
 21
-19.9389
  0
LINE
  8
0
 10
17.4299
 20
-19.9389
 11
17.554
 21
-20.0889
  0
LINE
  8
0
 10
17.554
 20
-20.0889
 11
17.6583
 21
-20.2533
  0
LINE
  8
0
 10
17.6583
 20
-20.2533
 11
17.7411
 21
-20.4294
  0
LINE
  8
0
 10
17.7411
 20
-20.4294
 11
17.8013
 21
-20.6145
  0
LINE
  8
0
 10
17.8013
 20
-20.6145
 11
17.8378
 21
-20.8057
  0
LINE
  8
0
 10
17.8378
 20
-20.8057
 11
17.85
 21
-21
  0
LINE
  8
0
 10
17.85
 20
-21
 11
17.8378
 21
-21.1943
  0
LINE
  8
0
 10
17.8378
 20
-21.1943
 11
17.8013
 21
-21.3855
  0
LINE
  8
0
 10
17.8013
 20
-21.3855
 11
17.7411
 21
-21.5706
  0
LINE
  8
0
 10
17.7411
 20
-21.5706
 11
17.6583
 21
-21.7467
  0
LINE
  8
0
 10
17.6583
 20
-21.7467
 11
17.554
 21
-21.9111
  0
LINE
  8
0
 10
17.554
 20
-21.9111
 11
17.4299
 21
-22.061
  0
LINE
  8
0
 10
17.4299
 20
-22.061
 11
17.288
 21
-22.1943
  0
LINE
  8
0
 10
17.288
 20
-22.1943
 11
17.1305
 21
-22.3087
  0
LINE
  8
0
 10
17.1305
 20
-22.3087
 11
16.9599
 21
-22.4025
  0
LINE
  8
0
 10
16.9599
 20
-22.4025
 11
16.779
 21
-22.4741
  0
LINE
  8
0
 10
16.779
 20
-22.4741
 11
16.5904
 21
-22.5225
  0
LINE
  8
0
 10
16.5904
 20
-22.5225
 11
16.3973
 21
-22.5469
  0
LINE
  8
0
 10
16.3973
 20
-22.5469
 11
16.2027
 21
-22.5469
  0
LINE
  8
0
 10
-16.3973
 20
-22.5469
 11
-16.5904
 21
-22.5225
  0
LINE
  8
0
 10
-16.5904
 20
-22.5225
 11
-16.779
 21
-22.4741
  0
LINE
  8
0
 10
-16.779
 20
-22.4741
 11
-16.9599
 21
-22.4025
  0
LINE
  8
0
 10
-16.9599
 20
-22.4025
 11
-17.1305
 21
-22.3087
  0
LINE
  8
0
 10
-17.1305
 20
-22.3087
 11
-17.288
 21
-22.1943
  0
LINE
  8
0
 10
-17.288
 20
-22.1943
 11
-17.4299
 21
-22.061
  0
LINE
  8
0
 10
-17.4299
 20
-22.061
 11
-17.554
 21
-21.9111
  0
LINE
  8
0
 10
-17.554
 20
-21.9111
 11
-17.6583
 21
-21.7467
  0
LINE
  8
0
 10
-17.6583
 20
-21.7467
 11
-17.7411
 21
-21.5706
  0
LINE
  8
0
 10
-17.7411
 20
-21.5706
 11
-17.8013
 21
-21.3855
  0
LINE
  8
0
 10
-17.8013
 20
-21.3855
 11
-17.8378
 21
-21.1943
  0
LINE
  8
0
 10
-17.8378
 20
-21.1943
 11
-17.85
 21
-21
  0
LINE
  8
0
 10
-17.85
 20
-21
 11
-17.8378
 21
-20.8057
  0
LINE
  8
0
 10
-17.8378
 20
-20.8057
 11
-17.8013
 21
-20.6145
  0
LINE
  8
0
 10
-17.8013
 20
-20.6145
 11
-17.7411
 21
-20.4294
  0
LINE
  8
0
 10
-17.7411
 20
-20.4294
 11
-17.6583
 21
-20.2533
  0
LINE
  8
0
 10
-17.6583
 20
-20.2533
 11
-17.554
 21
-20.0889
  0
LINE
  8
0
 10
-17.554
 20
-20.0889
 11
-17.4299
 21
-19.9389
  0
LINE
  8
0
 10
-17.4299
 20
-19.9389
 11
-17.288
 21
-19.8057
  0
LINE
  8
0
 10
-17.288
 20
-19.8057
 11
-17.1305
 21
-19.6913
  0
LINE
  8
0
 10
-17.1305
 20
-19.6913
 11
-16.9599
 21
-19.5975
  0
LINE
  8
0
 10
-16.9599
 20
-19.5975
 11
-16.779
 21
-19.5258
  0
LINE
  8
0
 10
-16.779
 20
-19.5258
 11
-16.5904
 21
-19.4774
  0
LINE
  8
0
 10
-16.5904
 20
-19.4774
 11
-16.3973
 21
-19.453
  0
LINE
  8
0
 10
-16.3973
 20
-19.453
 11
-16.2027
 21
-19.453
  0
LINE
  8
0
 10
-16.2027
 20
-19.453
 11
-16.0096
 21
-19.4774
  0
LINE
  8
0
 10
-16.0096
 20
-19.4774
 11
-15.821
 21
-19.5258
  0
LINE
  8
0
 10
-15.821
 20
-19.5258
 11
-15.64
 21
-19.5975
  0
LINE
  8
0
 10
-15.64
 20
-19.5975
 11
-15.4695
 21
-19.6913
  0
LINE
  8
0
 10
-15.4695
 20
-19.6913
 11
-15.312
 21
-19.8057
  0
LINE
  8
0
 10
-15.312
 20
-19.8057
 11
-15.1701
 21
-19.9389
  0
LINE
  8
0
 10
-15.1701
 20
-19.9389
 11
-15.046
 21
-20.0889
  0
LINE
  8
0
 10
-15.046
 20
-20.0889
 11
-14.9417
 21
-20.2533
  0
LINE
  8
0
 10
-14.9417
 20
-20.2533
 11
-14.8588
 21
-20.4294
  0
LINE
  8
0
 10
-14.8588
 20
-20.4294
 11
-14.7987
 21
-20.6145
  0
LINE
  8
0
 10
-14.7987
 20
-20.6145
 11
-14.7622
 21
-20.8057
  0
LINE
  8
0
 10
-14.7622
 20
-20.8057
 11
-14.75
 21
-21
  0
LINE
  8
0
 10
-14.75
 20
-21
 11
-14.7622
 21
-21.1943
  0
LINE
  8
0
 10
-14.7622
 20
-21.1943
 11
-14.7987
 21
-21.3855
  0
LINE
  8
0
 10
-14.7987
 20
-21.3855
 11
-14.8588
 21
-21.5706
  0
LINE
  8
0
 10
-14.8588
 20
-21.5706
 11
-14.9417
 21
-21.7467
  0
LINE
  8
0
 10
-14.9417
 20
-21.7467
 11
-15.046
 21
-21.9111
  0
LINE
  8
0
 10
-15.046
 20
-21.9111
 11
-15.1701
 21
-22.061
  0
LINE
  8
0
 10
-15.1701
 20
-22.061
 11
-15.312
 21
-22.1943
  0
LINE
  8
0
 10
-15.312
 20
-22.1943
 11
-15.4695
 21
-22.3087
  0
LINE
  8
0
 10
-15.4695
 20
-22.3087
 11
-15.64
 21
-22.4025
  0
LINE
  8
0
 10
-15.64
 20
-22.4025
 11
-15.821
 21
-22.4741
  0
LINE
  8
0
 10
-15.821
 20
-22.4741
 11
-16.0096
 21
-22.5225
  0
LINE
  8
0
 10
-16.0096
 20
-22.5225
 11
-16.2027
 21
-22.5469
  0
LINE
  8
0
 10
-16.2027
 20
-22.5469
 11
-16.3973
 21
-22.5469
  0
LINE
  8
0
 10
2.09395
 20
-22.7453
 11
2.20357
 21
-22.5124
  0
LINE
  8
0
 10
2.20357
 20
-22.5124
 11
2.34151
 21
-22.295
  0
LINE
  8
0
 10
2.34151
 20
-22.295
 11
2.5056
 21
-22.0967
  0
LINE
  8
0
 10
2.5056
 20
-22.0967
 11
2.69327
 21
-21.9204
  0
LINE
  8
0
 10
2.69327
 20
-21.9204
 11
2.90155
 21
-21.7691
  0
LINE
  8
0
 10
2.90155
 20
-21.7691
 11
3.12715
 21
-21.6451
  0
LINE
  8
0
 10
3.12715
 20
-21.6451
 11
3.3665
 21
-21.5503
  0
LINE
  8
0
 10
3.3665
 20
-21.5503
 11
3.61586
 21
-21.4863
  0
LINE
  8
0
 10
3.61586
 20
-21.4863
 11
3.87128
 21
-21.454
  0
LINE
  8
0
 10
3.87128
 20
-21.454
 11
4.12871
 21
-21.454
  0
LINE
  8
0
 10
4.12871
 20
-21.454
 11
4.38412
 21
-21.4863
  0
LINE
  8
0
 10
4.38412
 20
-21.4863
 11
4.63348
 21
-21.5503
  0
LINE
  8
0
 10
4.63348
 20
-21.5503
 11
4.87283
 21
-21.6451
  0
LINE
  8
0
 10
4.87283
 20
-21.6451
 11
5.09843
 21
-21.7691
  0
LINE
  8
0
 10
5.09843
 20
-21.7691
 11
5.30672
 21
-21.9204
  0
LINE
  8
0
 10
5.30672
 20
-21.9204
 11
5.49438
 21
-22.0967
  0
LINE
  8
0
 10
5.49438
 20
-22.0967
 11
5.65848
 21
-22.295
  0
LINE
  8
0
 10
5.65848
 20
-22.295
 11
5.79642
 21
-22.5124
  0
LINE
  8
0
 10
5.79642
 20
-22.5124
 11
5.90604
 21
-22.7453
  0
LINE
  8
0
 10
5.90604
 20
-22.7453
 11
5.98558
 21
-22.9902
  0
LINE
  8
0
 10
5.98558
 20
-22.9902
 11
6.03383
 21
-23.2431
  0
LINE
  8
0
 10
6.03383
 20
-23.2431
 11
6.04999
 21
-23.5
  0
LINE
  8
0
 10
6.04999
 20
-23.5
 11
6.03383
 21
-23.7569
  0
LINE
  8
0
 10
6.03383
 20
-23.7569
 11
5.98558
 21
-24.0098
  0
LINE
  8
0
 10
5.98558
 20
-24.0098
 11
5.90604
 21
-24.2547
  0
LINE
  8
0
 10
5.90604
 20
-24.2547
 11
5.79642
 21
-24.4876
  0
LINE
  8
0
 10
5.79642
 20
-24.4876
 11
5.65848
 21
-24.705
  0
LINE
  8
0
 10
5.65848
 20
-24.705
 11
5.49438
 21
-24.9033
  0
LINE
  8
0
 10
5.49438
 20
-24.9033
 11
5.30672
 21
-25.0795
  0
LINE
  8
0
 10
5.30672
 20
-25.0795
 11
5.09843
 21
-25.2309
  0
LINE
  8
0
 10
5.09843
 20
-25.2309
 11
4.87283
 21
-25.3549
  0
LINE
  8
0
 10
4.87283
 20
-25.3549
 11
4.63348
 21
-25.4497
  0
LINE
  8
0
 10
4.63348
 20
-25.4497
 11
4.38412
 21
-25.5137
  0
LINE
  8
0
 10
4.38412
 20
-25.5137
 11
4.12871
 21
-25.5459
  0
LINE
  8
0
 10
4.12871
 20
-25.5459
 11
3.87128
 21
-25.5459
  0
LINE
  8
0
 10
3.87128
 20
-25.5459
 11
3.61586
 21
-25.5137
  0
LINE
  8
0
 10
3.61586
 20
-25.5137
 11
3.3665
 21
-25.4497
  0
LINE
  8
0
 10
3.3665
 20
-25.4497
 11
3.12715
 21
-25.3549
  0
LINE
  8
0
 10
3.12715
 20
-25.3549
 11
2.90155
 21
-25.2309
  0
LINE
  8
0
 10
2.90155
 20
-25.2309
 11
2.69327
 21
-25.0795
  0
LINE
  8
0
 10
2.69327
 20
-25.0795
 11
2.5056
 21
-24.9033
  0
LINE
  8
0
 10
2.5056
 20
-24.9033
 11
2.34151
 21
-24.705
  0
LINE
  8
0
 10
2.34151
 20
-24.705
 11
2.20357
 21
-24.4876
  0
LINE
  8
0
 10
2.20357
 20
-24.4876
 11
2.09395
 21
-24.2547
  0
LINE
  8
0
 10
2.09395
 20
-24.2547
 11
2.0144
 21
-24.0098
  0
LINE
  8
0
 10
2.0144
 20
-24.0098
 11
1.96616
 21
-23.7569
  0
LINE
  8
0
 10
1.96616
 20
-23.7569
 11
1.95
 21
-23.5
  0
LINE
  8
0
 10
1.95
 20
-23.5
 11
1.96616
 21
-23.2431
  0
LINE
  8
0
 10
1.96616
 20
-23.2431
 11
2.0144
 21
-22.9902
  0
LINE
  8
0
 10
2.0144
 20
-22.9902
 11
2.09395
 21
-22.7453
  0
LINE
  8
0
 10
-28.1287
 20
-25.5459
 11
-28.3841
 21
-25.5137
  0
LINE
  8
0
 10
-28.3841
 20
-25.5137
 11
-28.6335
 21
-25.4497
  0
LINE
  8
0
 10
-28.6335
 20
-25.4497
 11
-28.8728
 21
-25.3549
  0
LINE
  8
0
 10
-28.8728
 20
-25.3549
 11
-29.0984
 21
-25.2309
  0
LINE
  8
0
 10
-29.0984
 20
-25.2309
 11
-29.3067
 21
-25.0795
  0
LINE
  8
0
 10
-29.3067
 20
-25.0795
 11
-29.4944
 21
-24.9033
  0
LINE
  8
0
 10
-29.4944
 20
-24.9033
 11
-29.6585
 21
-24.705
  0
LINE
  8
0
 10
-29.6585
 20
-24.705
 11
-29.7964
 21
-24.4876
  0
LINE
  8
0
 10
-29.7964
 20
-24.4876
 11
-29.906
 21
-24.2547
  0
LINE
  8
0
 10
-29.906
 20
-24.2547
 11
-29.9856
 21
-24.0098
  0
LINE
  8
0
 10
-29.9856
 20
-24.0098
 11
-30.0338
 21
-23.7569
  0
LINE
  8
0
 10
-30.0338
 20
-23.7569
 11
-30.05
 21
-23.5
  0
LINE
  8
0
 10
-30.05
 20
-23.5
 11
-30.0338
 21
-23.2431
  0
LINE
  8
0
 10
-30.0338
 20
-23.2431
 11
-29.9856
 21
-22.9902
  0
LINE
  8
0
 10
-29.9856
 20
-22.9902
 11
-29.906
 21
-22.7453
  0
LINE
  8
0
 10
-29.906
 20
-22.7453
 11
-29.7964
 21
-22.5124
  0
LINE
  8
0
 10
-29.7964
 20
-22.5124
 11
-29.6585
 21
-22.295
  0
LINE
  8
0
 10
-29.6585
 20
-22.295
 11
-29.4944
 21
-22.0967
  0
LINE
  8
0
 10
-29.4944
 20
-22.0967
 11
-29.3067
 21
-21.9204
  0
LINE
  8
0
 10
-29.3067
 20
-21.9204
 11
-29.0984
 21
-21.7691
  0
LINE
  8
0
 10
-29.0984
 20
-21.7691
 11
-28.8728
 21
-21.6451
  0
LINE
  8
0
 10
-28.8728
 20
-21.6451
 11
-28.6335
 21
-21.5503
  0
LINE
  8
0
 10
-28.6335
 20
-21.5503
 11
-28.3841
 21
-21.4863
  0
LINE
  8
0
 10
-28.3841
 20
-21.4863
 11
-28.1287
 21
-21.454
  0
LINE
  8
0
 10
-28.1287
 20
-21.454
 11
-27.8713
 21
-21.454
  0
LINE
  8
0
 10
-27.8713
 20
-21.454
 11
-27.6159
 21
-21.4863
  0
LINE
  8
0
 10
-27.6159
 20
-21.4863
 11
-27.3665
 21
-21.5503
  0
LINE
  8
0
 10
-27.3665
 20
-21.5503
 11
-27.1272
 21
-21.6451
  0
LINE
  8
0
 10
-27.1272
 20
-21.6451
 11
-26.9016
 21
-21.7691
  0
LINE
  8
0
 10
-26.9016
 20
-21.7691
 11
-26.6933
 21
-21.9204
  0
LINE
  8
0
 10
-26.6933
 20
-21.9204
 11
-26.5056
 21
-22.0967
  0
LINE
  8
0
 10
-26.5056
 20
-22.0967
 11
-26.3415
 21
-22.295
  0
LINE
  8
0
 10
-26.3415
 20
-22.295
 11
-26.2036
 21
-22.5124
  0
LINE
  8
0
 10
-26.2036
 20
-22.5124
 11
-26.0939
 21
-22.7453
  0
LINE
  8
0
 10
-26.0939
 20
-22.7453
 11
-26.0144
 21
-22.9902
  0
LINE
  8
0
 10
-26.0144
 20
-22.9902
 11
-25.9662
 21
-23.2431
  0
LINE
  8
0
 10
-25.9662
 20
-23.2431
 11
-25.95
 21
-23.5
  0
LINE
  8
0
 10
-25.95
 20
-23.5
 11
-25.9662
 21
-23.7569
  0
LINE
  8
0
 10
-25.9662
 20
-23.7569
 11
-26.0144
 21
-24.0098
  0
LINE
  8
0
 10
-26.0144
 20
-24.0098
 11
-26.0939
 21
-24.2547
  0
LINE
  8
0
 10
-26.0939
 20
-24.2547
 11
-26.2036
 21
-24.4876
  0
LINE
  8
0
 10
-26.2036
 20
-24.4876
 11
-26.3415
 21
-24.705
  0
LINE
  8
0
 10
-26.3415
 20
-24.705
 11
-26.5056
 21
-24.9033
  0
LINE
  8
0
 10
-26.5056
 20
-24.9033
 11
-26.6933
 21
-25.0795
  0
LINE
  8
0
 10
-26.6933
 20
-25.0795
 11
-26.9016
 21
-25.2309
  0
LINE
  8
0
 10
-26.9016
 20
-25.2309
 11
-27.1272
 21
-25.3549
  0
LINE
  8
0
 10
-27.1272
 20
-25.3549
 11
-27.3665
 21
-25.4497
  0
LINE
  8
0
 10
-27.3665
 20
-25.4497
 11
-27.6159
 21
-25.5137
  0
LINE
  8
0
 10
-27.6159
 20
-25.5137
 11
-27.8713
 21
-25.5459
  0
LINE
  8
0
 10
-27.8713
 20
-25.5459
 11
-28.1287
 21
-25.5459
  0
LINE
  8
0
 10
27.8713
 20
-25.5459
 11
27.6159
 21
-25.5137
  0
LINE
  8
0
 10
27.6159
 20
-25.5137
 11
27.3665
 21
-25.4497
  0
LINE
  8
0
 10
27.3665
 20
-25.4497
 11
27.1272
 21
-25.3549
  0
LINE
  8
0
 10
27.1272
 20
-25.3549
 11
26.9016
 21
-25.2309
  0
LINE
  8
0
 10
26.9016
 20
-25.2309
 11
26.6933
 21
-25.0795
  0
LINE
  8
0
 10
26.6933
 20
-25.0795
 11
26.5056
 21
-24.9033
  0
LINE
  8
0
 10
26.5056
 20
-24.9033
 11
26.3415
 21
-24.705
  0
LINE
  8
0
 10
26.3415
 20
-24.705
 11
26.2036
 21
-24.4876
  0
LINE
  8
0
 10
26.2036
 20
-24.4876
 11
26.0939
 21
-24.2547
  0
LINE
  8
0
 10
26.0939
 20
-24.2547
 11
26.0144
 21
-24.0098
  0
LINE
  8
0
 10
26.0144
 20
-24.0098
 11
25.9662
 21
-23.7569
  0
LINE
  8
0
 10
25.9662
 20
-23.7569
 11
25.95
 21
-23.5
  0
LINE
  8
0
 10
25.95
 20
-23.5
 11
25.9662
 21
-23.2431
  0
LINE
  8
0
 10
25.9662
 20
-23.2431
 11
26.0144
 21
-22.9902
  0
LINE
  8
0
 10
26.0144
 20
-22.9902
 11
26.0939
 21
-22.7453
  0
LINE
  8
0
 10
26.0939
 20
-22.7453
 11
26.2036
 21
-22.5124
  0
LINE
  8
0
 10
26.2036
 20
-22.5124
 11
26.3415
 21
-22.295
  0
LINE
  8
0
 10
26.3415
 20
-22.295
 11
26.5056
 21
-22.0967
  0
LINE
  8
0
 10
26.5056
 20
-22.0967
 11
26.6933
 21
-21.9204
  0
LINE
  8
0
 10
26.6933
 20
-21.9204
 11
26.9016
 21
-21.7691
  0
LINE
  8
0
 10
26.9016
 20
-21.7691
 11
27.1272
 21
-21.6451
  0
LINE
  8
0
 10
27.1272
 20
-21.6451
 11
27.3665
 21
-21.5503
  0
LINE
  8
0
 10
27.3665
 20
-21.5503
 11
27.6159
 21
-21.4863
  0
LINE
  8
0
 10
27.6159
 20
-21.4863
 11
27.8713
 21
-21.454
  0
LINE
  8
0
 10
27.8713
 20
-21.454
 11
28.1287
 21
-21.454
  0
LINE
  8
0
 10
28.1287
 20
-21.454
 11
28.3841
 21
-21.4863
  0
LINE
  8
0
 10
28.3841
 20
-21.4863
 11
28.6335
 21
-21.5503
  0
LINE
  8
0
 10
28.6335
 20
-21.5503
 11
28.8728
 21
-21.6451
  0
LINE
  8
0
 10
28.8728
 20
-21.6451
 11
29.0984
 21
-21.7691
  0
LINE
  8
0
 10
29.0984
 20
-21.7691
 11
29.3067
 21
-21.9204
  0
LINE
  8
0
 10
29.3067
 20
-21.9204
 11
29.4944
 21
-22.0967
  0
LINE
  8
0
 10
29.4944
 20
-22.0967
 11
29.6585
 21
-22.295
  0
LINE
  8
0
 10
29.6585
 20
-22.295
 11
29.7964
 21
-22.5124
  0
LINE
  8
0
 10
29.7964
 20
-22.5124
 11
29.906
 21
-22.7453
  0
LINE
  8
0
 10
29.906
 20
-22.7453
 11
29.9856
 21
-22.9902
  0
LINE
  8
0
 10
29.9856
 20
-22.9902
 11
30.0338
 21
-23.2431
  0
LINE
  8
0
 10
30.0338
 20
-23.2431
 11
30.05
 21
-23.5
  0
LINE
  8
0
 10
30.05
 20
-23.5
 11
30.0338
 21
-23.7569
  0
LINE
  8
0
 10
30.0338
 20
-23.7569
 11
29.9856
 21
-24.0098
  0
LINE
  8
0
 10
29.9856
 20
-24.0098
 11
29.906
 21
-24.2547
  0
LINE
  8
0
 10
29.906
 20
-24.2547
 11
29.7964
 21
-24.4876
  0
LINE
  8
0
 10
29.7964
 20
-24.4876
 11
29.6585
 21
-24.705
  0
LINE
  8
0
 10
29.6585
 20
-24.705
 11
29.4944
 21
-24.9033
  0
LINE
  8
0
 10
29.4944
 20
-24.9033
 11
29.3067
 21
-25.0795
  0
LINE
  8
0
 10
29.3067
 20
-25.0795
 11
29.0984
 21
-25.2309
  0
LINE
  8
0
 10
29.0984
 20
-25.2309
 11
28.8728
 21
-25.3549
  0
LINE
  8
0
 10
28.8728
 20
-25.3549
 11
28.6335
 21
-25.4497
  0
LINE
  8
0
 10
28.6335
 20
-25.4497
 11
28.3841
 21
-25.5137
  0
LINE
  8
0
 10
28.3841
 20
-25.5137
 11
28.1287
 21
-25.5459
  0
LINE
  8
0
 10
28.1287
 20
-25.5459
 11
27.8713
 21
-25.5459
  0
LINE
  8
0
 10
23.9027
 20
-30.0469
 11
23.7095
 21
-30.0225
  0
LINE
  8
0
 10
23.7095
 20
-30.0225
 11
23.521
 21
-29.9741
  0
LINE
  8
0
 10
23.521
 20
-29.9741
 11
23.34
 21
-29.9025
  0
LINE
  8
0
 10
23.34
 20
-29.9025
 11
23.1695
 21
-29.8087
  0
LINE
  8
0
 10
23.1695
 20
-29.8087
 11
23.012
 21
-29.6943
  0
LINE
  8
0
 10
23.012
 20
-29.6943
 11
22.8701
 21
-29.561
  0
LINE
  8
0
 10
22.8701
 20
-29.561
 11
22.746
 21
-29.4111
  0
LINE
  8
0
 10
22.746
 20
-29.4111
 11
22.6417
 21
-29.2467
  0
LINE
  8
0
 10
22.6417
 20
-29.2467
 11
22.5588
 21
-29.0706
  0
LINE
  8
0
 10
22.5588
 20
-29.0706
 11
22.4987
 21
-28.8855
  0
LINE
  8
0
 10
22.4987
 20
-28.8855
 11
22.4622
 21
-28.6943
  0
LINE
  8
0
 10
22.4622
 20
-28.6943
 11
22.45
 21
-28.5
  0
LINE
  8
0
 10
22.45
 20
-28.5
 11
22.4622
 21
-28.3057
  0
LINE
  8
0
 10
22.4622
 20
-28.3057
 11
22.4987
 21
-28.1145
  0
LINE
  8
0
 10
22.4987
 20
-28.1145
 11
22.5588
 21
-27.9294
  0
LINE
  8
0
 10
22.5588
 20
-27.9294
 11
22.6417
 21
-27.7533
  0
LINE
  8
0
 10
22.6417
 20
-27.7533
 11
22.746
 21
-27.5889
  0
LINE
  8
0
 10
22.746
 20
-27.5889
 11
22.8701
 21
-27.4389
  0
LINE
  8
0
 10
22.8701
 20
-27.4389
 11
23.012
 21
-27.3057
  0
LINE
  8
0
 10
23.012
 20
-27.3057
 11
23.1695
 21
-27.1913
  0
LINE
  8
0
 10
23.1695
 20
-27.1913
 11
23.34
 21
-27.0975
  0
LINE
  8
0
 10
23.34
 20
-27.0975
 11
23.521
 21
-27.0258
  0
LINE
  8
0
 10
23.521
 20
-27.0258
 11
23.7095
 21
-26.9774
  0
LINE
  8
0
 10
23.7095
 20
-26.9774
 11
23.9027
 21
-26.953
  0
LINE
  8
0
 10
23.9027
 20
-26.953
 11
24.0973
 21
-26.953
  0
LINE
  8
0
 10
24.0973
 20
-26.953
 11
24.2904
 21
-26.9774
  0
LINE
  8
0
 10
24.2904
 20
-26.9774
 11
24.479
 21
-27.0258
  0
LINE
  8
0
 10
24.479
 20
-27.0258
 11
24.66
 21
-27.0975
  0
LINE
  8
0
 10
24.66
 20
-27.0975
 11
24.8305
 21
-27.1913
  0
LINE
  8
0
 10
24.8305
 20
-27.1913
 11
24.988
 21
-27.3057
  0
LINE
  8
0
 10
24.988
 20
-27.3057
 11
25.1299
 21
-27.4389
  0
LINE
  8
0
 10
25.1299
 20
-27.4389
 11
25.254
 21
-27.5889
  0
LINE
  8
0
 10
25.254
 20
-27.5889
 11
25.3583
 21
-27.7533
  0
LINE
  8
0
 10
25.3583
 20
-27.7533
 11
25.4411
 21
-27.9294
  0
LINE
  8
0
 10
25.4411
 20
-27.9294
 11
25.5013
 21
-28.1145
  0
LINE
  8
0
 10
25.5013
 20
-28.1145
 11
25.5378
 21
-28.3057
  0
LINE
  8
0
 10
25.5378
 20
-28.3057
 11
25.55
 21
-28.5
  0
LINE
  8
0
 10
25.55
 20
-28.5
 11
25.5378
 21
-28.6943
  0
LINE
  8
0
 10
25.5378
 20
-28.6943
 11
25.5013
 21
-28.8855
  0
LINE
  8
0
 10
25.5013
 20
-28.8855
 11
25.4411
 21
-29.0706
  0
LINE
  8
0
 10
25.4411
 20
-29.0706
 11
25.3583
 21
-29.2467
  0
LINE
  8
0
 10
25.3583
 20
-29.2467
 11
25.254
 21
-29.4111
  0
LINE
  8
0
 10
25.254
 20
-29.4111
 11
25.1299
 21
-29.561
  0
LINE
  8
0
 10
25.1299
 20
-29.561
 11
24.988
 21
-29.6943
  0
LINE
  8
0
 10
24.988
 20
-29.6943
 11
24.8305
 21
-29.8087
  0
LINE
  8
0
 10
24.8305
 20
-29.8087
 11
24.66
 21
-29.9025
  0
LINE
  8
0
 10
24.66
 20
-29.9025
 11
24.479
 21
-29.9741
  0
LINE
  8
0
 10
24.479
 20
-29.9741
 11
24.2904
 21
-30.0225
  0
LINE
  8
0
 10
24.2904
 20
-30.0225
 11
24.0973
 21
-30.0469
  0
LINE
  8
0
 10
24.0973
 20
-30.0469
 11
23.9027
 21
-30.0469
  0
LINE
  8
0
 10
-0.0973206
 20
-30.0469
 11
-0.290436
 21
-30.0225
  0
LINE
  8
0
 10
-0.290436
 20
-30.0225
 11
-0.478973
 21
-29.9741
  0
LINE
  8
0
 10
-0.478973
 20
-29.9741
 11
-0.659958
 21
-29.9025
  0
LINE
  8
0
 10
-0.659958
 20
-29.9025
 11
-0.830521
 21
-29.8087
  0
LINE
  8
0
 10
-0.830521
 20
-29.8087
 11
-0.988007
 21
-29.6943
  0
LINE
  8
0
 10
-0.988007
 20
-29.6943
 11
-1.1299
 21
-29.561
  0
LINE
  8
0
 10
-1.1299
 20
-29.561
 11
-1.25397
 21
-29.4111
  0
LINE
  8
0
 10
-1.25397
 20
-29.4111
 11
-1.35826
 21
-29.2467
  0
LINE
  8
0
 10
-1.35826
 20
-29.2467
 11
-1.44115
 21
-29.0706
  0
LINE
  8
0
 10
-1.44115
 20
-29.0706
 11
-1.5013
 21
-28.8855
  0
LINE
  8
0
 10
-1.5013
 20
-28.8855
 11
-1.53777
 21
-28.6943
  0
LINE
  8
0
 10
-1.53777
 20
-28.6943
 11
-1.54999
 21
-28.5
  0
LINE
  8
0
 10
-1.54999
 20
-28.5
 11
-1.53777
 21
-28.3057
  0
LINE
  8
0
 10
-1.53777
 20
-28.3057
 11
-1.5013
 21
-28.1145
  0
LINE
  8
0
 10
-1.5013
 20
-28.1145
 11
-1.44115
 21
-27.9294
  0
LINE
  8
0
 10
-1.44115
 20
-27.9294
 11
-1.35826
 21
-27.7533
  0
LINE
  8
0
 10
-1.35826
 20
-27.7533
 11
-1.25397
 21
-27.5889
  0
LINE
  8
0
 10
-1.25397
 20
-27.5889
 11
-1.1299
 21
-27.4389
  0
LINE
  8
0
 10
-1.1299
 20
-27.4389
 11
-0.988007
 21
-27.3057
  0
LINE
  8
0
 10
-0.988007
 20
-27.3057
 11
-0.830521
 21
-27.1913
  0
LINE
  8
0
 10
-0.830521
 20
-27.1913
 11
-0.659958
 21
-27.0975
  0
LINE
  8
0
 10
-0.659958
 20
-27.0975
 11
-0.478973
 21
-27.0258
  0
LINE
  8
0
 10
-0.478973
 20
-27.0258
 11
-0.290436
 21
-26.9774
  0
LINE
  8
0
 10
-0.290436
 20
-26.9774
 11
-0.0973206
 21
-26.953
  0
LINE
  8
0
 10
-0.0973206
 20
-26.953
 11
0.0973206
 21
-26.953
  0
LINE
  8
0
 10
0.0973206
 20
-26.953
 11
0.290436
 21
-26.9774
  0
LINE
  8
0
 10
0.290436
 20
-26.9774
 11
0.478973
 21
-27.0258
  0
LINE
  8
0
 10
0.478973
 20
-27.0258
 11
0.659958
 21
-27.0975
  0
LINE
  8
0
 10
0.659958
 20
-27.0975
 11
0.830521
 21
-27.1913
  0
LINE
  8
0
 10
0.830521
 20
-27.1913
 11
0.988007
 21
-27.3057
  0
LINE
  8
0
 10
0.988007
 20
-27.3057
 11
1.1299
 21
-27.4389
  0
LINE
  8
0
 10
1.1299
 20
-27.4389
 11
1.25397
 21
-27.5889
  0
LINE
  8
0
 10
1.25397
 20
-27.5889
 11
1.35826
 21
-27.7533
  0
LINE
  8
0
 10
1.35826
 20
-27.7533
 11
1.44115
 21
-27.9294
  0
LINE
  8
0
 10
1.44115
 20
-27.9294
 11
1.5013
 21
-28.1145
  0
LINE
  8
0
 10
1.5013
 20
-28.1145
 11
1.53777
 21
-28.3057
  0
LINE
  8
0
 10
1.53777
 20
-28.3057
 11
1.54999
 21
-28.5
  0
LINE
  8
0
 10
1.54999
 20
-28.5
 11
1.53777
 21
-28.6943
  0
LINE
  8
0
 10
1.53777
 20
-28.6943
 11
1.5013
 21
-28.8855
  0
LINE
  8
0
 10
1.5013
 20
-28.8855
 11
1.44115
 21
-29.0706
  0
LINE
  8
0
 10
1.44115
 20
-29.0706
 11
1.35826
 21
-29.2467
  0
LINE
  8
0
 10
1.35826
 20
-29.2467
 11
1.25397
 21
-29.4111
  0
LINE
  8
0
 10
1.25397
 20
-29.4111
 11
1.1299
 21
-29.561
  0
LINE
  8
0
 10
1.1299
 20
-29.561
 11
0.988007
 21
-29.6943
  0
LINE
  8
0
 10
0.988007
 20
-29.6943
 11
0.830521
 21
-29.8087
  0
LINE
  8
0
 10
0.830521
 20
-29.8087
 11
0.659958
 21
-29.9025
  0
LINE
  8
0
 10
0.659958
 20
-29.9025
 11
0.478973
 21
-29.9741
  0
LINE
  8
0
 10
0.478973
 20
-29.9741
 11
0.290436
 21
-30.0225
  0
LINE
  8
0
 10
0.290436
 20
-30.0225
 11
0.0973206
 21
-30.0469
  0
LINE
  8
0
 10
0.0973206
 20
-30.0469
 11
-0.0973206
 21
-30.0469
  0
LINE
  8
0
 10
-24.0973
 20
-30.0469
 11
-24.2904
 21
-30.0225
  0
LINE
  8
0
 10
-24.2904
 20
-30.0225
 11
-24.479
 21
-29.9741
  0
LINE
  8
0
 10
-24.479
 20
-29.9741
 11
-24.66
 21
-29.9025
  0
LINE
  8
0
 10
-24.66
 20
-29.9025
 11
-24.8305
 21
-29.8087
  0
LINE
  8
0
 10
-24.8305
 20
-29.8087
 11
-24.988
 21
-29.6943
  0
LINE
  8
0
 10
-24.988
 20
-29.6943
 11
-25.1299
 21
-29.561
  0
LINE
  8
0
 10
-25.1299
 20
-29.561
 11
-25.254
 21
-29.4111
  0
LINE
  8
0
 10
-25.254
 20
-29.4111
 11
-25.3583
 21
-29.2467
  0
LINE
  8
0
 10
-25.3583
 20
-29.2467
 11
-25.4411
 21
-29.0706
  0
LINE
  8
0
 10
-25.4411
 20
-29.0706
 11
-25.5013
 21
-28.8855
  0
LINE
  8
0
 10
-25.5013
 20
-28.8855
 11
-25.5378
 21
-28.6943
  0
LINE
  8
0
 10
-25.5378
 20
-28.6943
 11
-25.55
 21
-28.5
  0
LINE
  8
0
 10
-25.55
 20
-28.5
 11
-25.5378
 21
-28.3057
  0
LINE
  8
0
 10
-25.5378
 20
-28.3057
 11
-25.5013
 21
-28.1145
  0
LINE
  8
0
 10
-25.5013
 20
-28.1145
 11
-25.4411
 21
-27.9294
  0
LINE
  8
0
 10
-25.4411
 20
-27.9294
 11
-25.3583
 21
-27.7533
  0
LINE
  8
0
 10
-25.3583
 20
-27.7533
 11
-25.254
 21
-27.5889
  0
LINE
  8
0
 10
-25.254
 20
-27.5889
 11
-25.1299
 21
-27.4389
  0
LINE
  8
0
 10
-25.1299
 20
-27.4389
 11
-24.988
 21
-27.3057
  0
LINE
  8
0
 10
-24.988
 20
-27.3057
 11
-24.8305
 21
-27.1913
  0
LINE
  8
0
 10
-24.8305
 20
-27.1913
 11
-24.66
 21
-27.0975
  0
LINE
  8
0
 10
-24.66
 20
-27.0975
 11
-24.479
 21
-27.0258
  0
LINE
  8
0
 10
-24.479
 20
-27.0258
 11
-24.2904
 21
-26.9774
  0
LINE
  8
0
 10
-24.2904
 20
-26.9774
 11
-24.0973
 21
-26.953
  0
LINE
  8
0
 10
-24.0973
 20
-26.953
 11
-23.9027
 21
-26.953
  0
LINE
  8
0
 10
-23.9027
 20
-26.953
 11
-23.7095
 21
-26.9774
  0
LINE
  8
0
 10
-23.7095
 20
-26.9774
 11
-23.521
 21
-27.0258
  0
LINE
  8
0
 10
-23.521
 20
-27.0258
 11
-23.34
 21
-27.0975
  0
LINE
  8
0
 10
-23.34
 20
-27.0975
 11
-23.1695
 21
-27.1913
  0
LINE
  8
0
 10
-23.1695
 20
-27.1913
 11
-23.012
 21
-27.3057
  0
LINE
  8
0
 10
-23.012
 20
-27.3057
 11
-22.8701
 21
-27.4389
  0
LINE
  8
0
 10
-22.8701
 20
-27.4389
 11
-22.746
 21
-27.5889
  0
LINE
  8
0
 10
-22.746
 20
-27.5889
 11
-22.6417
 21
-27.7533
  0
LINE
  8
0
 10
-22.6417
 20
-27.7533
 11
-22.5588
 21
-27.9294
  0
LINE
  8
0
 10
-22.5588
 20
-27.9294
 11
-22.4987
 21
-28.1145
  0
LINE
  8
0
 10
-22.4987
 20
-28.1145
 11
-22.4622
 21
-28.3057
  0
LINE
  8
0
 10
-22.4622
 20
-28.3057
 11
-22.45
 21
-28.5
  0
LINE
  8
0
 10
-22.45
 20
-28.5
 11
-22.4622
 21
-28.6943
  0
LINE
  8
0
 10
-22.4622
 20
-28.6943
 11
-22.4987
 21
-28.8855
  0
LINE
  8
0
 10
-22.4987
 20
-28.8855
 11
-22.5588
 21
-29.0706
  0
LINE
  8
0
 10
-22.5588
 20
-29.0706
 11
-22.6417
 21
-29.2467
  0
LINE
  8
0
 10
-22.6417
 20
-29.2467
 11
-22.746
 21
-29.4111
  0
LINE
  8
0
 10
-22.746
 20
-29.4111
 11
-22.8701
 21
-29.561
  0
LINE
  8
0
 10
-22.8701
 20
-29.561
 11
-23.012
 21
-29.6943
  0
LINE
  8
0
 10
-23.012
 20
-29.6943
 11
-23.1695
 21
-29.8087
  0
LINE
  8
0
 10
-23.1695
 20
-29.8087
 11
-23.34
 21
-29.9025
  0
LINE
  8
0
 10
-23.34
 20
-29.9025
 11
-23.521
 21
-29.9741
  0
LINE
  8
0
 10
-23.521
 20
-29.9741
 11
-23.7095
 21
-30.0225
  0
LINE
  8
0
 10
-23.7095
 20
-30.0225
 11
-23.9027
 21
-30.0469
  0
LINE
  8
0
 10
-23.9027
 20
-30.0469
 11
-24.0973
 21
-30.0469
  0
LINE
  8
0
 10
-1.96616
 20
-23.7569
 11
-2.0144
 21
-24.0098
  0
LINE
  8
0
 10
-2.0144
 20
-24.0098
 11
-2.09395
 21
-24.2547
  0
LINE
  8
0
 10
-2.09395
 20
-24.2547
 11
-2.20357
 21
-24.4876
  0
LINE
  8
0
 10
-2.20357
 20
-24.4876
 11
-2.34151
 21
-24.705
  0
LINE
  8
0
 10
-2.34151
 20
-24.705
 11
-2.5056
 21
-24.9033
  0
LINE
  8
0
 10
-2.5056
 20
-24.9033
 11
-2.69327
 21
-25.0795
  0
LINE
  8
0
 10
-2.69327
 20
-25.0795
 11
-2.90155
 21
-25.2309
  0
LINE
  8
0
 10
-2.90155
 20
-25.2309
 11
-3.12715
 21
-25.3549
  0
LINE
  8
0
 10
-3.12715
 20
-25.3549
 11
-3.3665
 21
-25.4497
  0
LINE
  8
0
 10
-3.3665
 20
-25.4497
 11
-3.61586
 21
-25.5137
  0
LINE
  8
0
 10
-3.61586
 20
-25.5137
 11
-3.87128
 21
-25.5459
  0
LINE
  8
0
 10
-3.87128
 20
-25.5459
 11
-4.12871
 21
-25.5459
  0
LINE
  8
0
 10
-4.12871
 20
-25.5459
 11
-4.38412
 21
-25.5137
  0
LINE
  8
0
 10
-4.38412
 20
-25.5137
 11
-4.63348
 21
-25.4497
  0
LINE
  8
0
 10
-4.63348
 20
-25.4497
 11
-4.87283
 21
-25.3549
  0
LINE
  8
0
 10
-4.87283
 20
-25.3549
 11
-5.09843
 21
-25.2309
  0
LINE
  8
0
 10
-5.09843
 20
-25.2309
 11
-5.30672
 21
-25.0795
  0
LINE
  8
0
 10
-5.30672
 20
-25.0795
 11
-5.49438
 21
-24.9033
  0
LINE
  8
0
 10
-5.49438
 20
-24.9033
 11
-5.65848
 21
-24.705
  0
LINE
  8
0
 10
-5.65848
 20
-24.705
 11
-5.79642
 21
-24.4876
  0
LINE
  8
0
 10
-5.79642
 20
-24.4876
 11
-5.90604
 21
-24.2547
  0
LINE
  8
0
 10
-5.90604
 20
-24.2547
 11
-5.98558
 21
-24.0098
  0
LINE
  8
0
 10
-5.98558
 20
-24.0098
 11
-6.03383
 21
-23.7569
  0
LINE
  8
0
 10
-6.03383
 20
-23.7569
 11
-6.04999
 21
-23.5
  0
LINE
  8
0
 10
-6.04999
 20
-23.5
 11
-6.03383
 21
-23.2431
  0
LINE
  8
0
 10
-6.03383
 20
-23.2431
 11
-5.98558
 21
-22.9902
  0
LINE
  8
0
 10
-5.98558
 20
-22.9902
 11
-5.90604
 21
-22.7453
  0
LINE
  8
0
 10
-5.90604
 20
-22.7453
 11
-5.79642
 21
-22.5124
  0
LINE
  8
0
 10
-5.79642
 20
-22.5124
 11
-5.65848
 21
-22.295
  0
LINE
  8
0
 10
-5.65848
 20
-22.295
 11
-5.49438
 21
-22.0967
  0
LINE
  8
0
 10
-5.49438
 20
-22.0967
 11
-5.30672
 21
-21.9204
  0
LINE
  8
0
 10
-5.30672
 20
-21.9204
 11
-5.09843
 21
-21.7691
  0
LINE
  8
0
 10
-5.09843
 20
-21.7691
 11
-4.87283
 21
-21.6451
  0
LINE
  8
0
 10
-4.87283
 20
-21.6451
 11
-4.63348
 21
-21.5503
  0
LINE
  8
0
 10
-4.63348
 20
-21.5503
 11
-4.38412
 21
-21.4863
  0
LINE
  8
0
 10
-4.38412
 20
-21.4863
 11
-4.12871
 21
-21.454
  0
LINE
  8
0
 10
-4.12871
 20
-21.454
 11
-3.87128
 21
-21.454
  0
LINE
  8
0
 10
-3.87128
 20
-21.454
 11
-3.61586
 21
-21.4863
  0
LINE
  8
0
 10
-3.61586
 20
-21.4863
 11
-3.3665
 21
-21.5503
  0
LINE
  8
0
 10
-3.3665
 20
-21.5503
 11
-3.12715
 21
-21.6451
  0
LINE
  8
0
 10
-3.12715
 20
-21.6451
 11
-2.90155
 21
-21.7691
  0
LINE
  8
0
 10
-2.90155
 20
-21.7691
 11
-2.69327
 21
-21.9204
  0
LINE
  8
0
 10
-2.69327
 20
-21.9204
 11
-2.5056
 21
-22.0967
  0
LINE
  8
0
 10
-2.5056
 20
-22.0967
 11
-2.34151
 21
-22.295
  0
LINE
  8
0
 10
-2.34151
 20
-22.295
 11
-2.20357
 21
-22.5124
  0
LINE
  8
0
 10
-2.20357
 20
-22.5124
 11
-2.09395
 21
-22.7453
  0
LINE
  8
0
 10
-2.09395
 20
-22.7453
 11
-2.0144
 21
-22.9902
  0
LINE
  8
0
 10
-2.0144
 20
-22.9902
 11
-1.96616
 21
-23.2431
  0
LINE
  8
0
 10
-1.96616
 20
-23.2431
 11
-1.95
 21
-23.5
  0
LINE
  8
0
 10
-1.95
 20
-23.5
 11
-1.96616
 21
-23.7569
  0
ENDSEC
  0
SECTION
  2
OBJECTS
  0
DICTIONARY
  0
ENDSEC
  0
EOF
